<mxfile host="app.diagrams.net" modified="2020-11-26T08:05:00.248Z" agent="5.0 (Windows NT 10.0; Win64; x64) AppleWebKit/537.36 (KHTML, like Gecko) Chrome/86.0.4240.198 Safari/537.36" etag="WAcisiXq6AvXfayTF3JZ" version="13.10.3" type="github">
  <diagram id="kgpKYQtTHZ0yAKxKKP6v" name="Page-1">
    <mxGraphModel dx="1422" dy="762" grid="1" gridSize="10" guides="1" tooltips="1" connect="1" arrows="1" fold="1" page="1" pageScale="1" pageWidth="850" pageHeight="1100" math="0" shadow="0">
      <root>
        <mxCell id="0" />
        <mxCell id="1" parent="0" />
        <mxCell id="3nuBFxr9cyL0pnOWT2aG-1" value=":Object" style="shape=umlLifeline;perimeter=lifelinePerimeter;container=1;collapsible=0;recursiveResize=0;rounded=0;shadow=0;strokeWidth=1;" parent="1" vertex="1">
          <mxGeometry x="120" y="80" width="100" height="300" as="geometry" />
        </mxCell>
        <mxCell id="3nuBFxr9cyL0pnOWT2aG-2" value="" style="points=[];perimeter=orthogonalPerimeter;rounded=0;shadow=0;strokeWidth=1;" parent="3nuBFxr9cyL0pnOWT2aG-1" vertex="1">
          <mxGeometry x="45" y="70" width="10" height="190" as="geometry" />
        </mxCell>
        <mxCell id="3nuBFxr9cyL0pnOWT2aG-3" value="dispatch" style="verticalAlign=bottom;startArrow=oval;endArrow=block;startSize=8;shadow=0;strokeWidth=1;" parent="3nuBFxr9cyL0pnOWT2aG-1" target="3nuBFxr9cyL0pnOWT2aG-2" edge="1">
          <mxGeometry relative="1" as="geometry">
            <mxPoint x="-15" y="70" as="sourcePoint" />
          </mxGeometry>
        </mxCell>
        <mxCell id="3nuBFxr9cyL0pnOWT2aG-4" value="" style="points=[];perimeter=orthogonalPerimeter;rounded=0;shadow=0;strokeWidth=1;" parent="3nuBFxr9cyL0pnOWT2aG-1" vertex="1">
          <mxGeometry x="50" y="120" width="10" height="80" as="geometry" />
        </mxCell>
        <mxCell id="3nuBFxr9cyL0pnOWT2aG-5" value=":Object" style="shape=umlLifeline;perimeter=lifelinePerimeter;container=1;collapsible=0;recursiveResize=0;rounded=0;shadow=0;strokeWidth=1;" parent="1" vertex="1">
          <mxGeometry x="300" y="80" width="100" height="300" as="geometry" />
        </mxCell>
        <mxCell id="3nuBFxr9cyL0pnOWT2aG-6" value="" style="points=[];perimeter=orthogonalPerimeter;rounded=0;shadow=0;strokeWidth=1;" parent="3nuBFxr9cyL0pnOWT2aG-5" vertex="1">
          <mxGeometry x="45" y="80" width="10" height="160" as="geometry" />
        </mxCell>
        <mxCell id="3nuBFxr9cyL0pnOWT2aG-7" value="return" style="verticalAlign=bottom;endArrow=open;dashed=1;endSize=8;exitX=0;exitY=0.95;shadow=0;strokeWidth=1;" parent="1" source="3nuBFxr9cyL0pnOWT2aG-6" target="3nuBFxr9cyL0pnOWT2aG-2" edge="1">
          <mxGeometry relative="1" as="geometry">
            <mxPoint x="275" y="236" as="targetPoint" />
          </mxGeometry>
        </mxCell>
        <mxCell id="3nuBFxr9cyL0pnOWT2aG-8" value="dispatch" style="verticalAlign=bottom;endArrow=block;entryX=0;entryY=0;shadow=0;strokeWidth=1;" parent="1" source="3nuBFxr9cyL0pnOWT2aG-2" target="3nuBFxr9cyL0pnOWT2aG-6" edge="1">
          <mxGeometry relative="1" as="geometry">
            <mxPoint x="275" y="160" as="sourcePoint" />
          </mxGeometry>
        </mxCell>
        <mxCell id="3nuBFxr9cyL0pnOWT2aG-9" value="callback" style="verticalAlign=bottom;endArrow=block;entryX=1;entryY=0;shadow=0;strokeWidth=1;" parent="1" source="3nuBFxr9cyL0pnOWT2aG-6" target="3nuBFxr9cyL0pnOWT2aG-4" edge="1">
          <mxGeometry relative="1" as="geometry">
            <mxPoint x="240" y="200" as="sourcePoint" />
          </mxGeometry>
        </mxCell>
        <mxCell id="3nuBFxr9cyL0pnOWT2aG-10" value="return" style="verticalAlign=bottom;endArrow=open;dashed=1;endSize=8;exitX=1;exitY=0.95;shadow=0;strokeWidth=1;" parent="1" source="3nuBFxr9cyL0pnOWT2aG-4" target="3nuBFxr9cyL0pnOWT2aG-6" edge="1">
          <mxGeometry relative="1" as="geometry">
            <mxPoint x="240" y="257" as="targetPoint" />
          </mxGeometry>
        </mxCell>
        <mxCell id="OUyavA1izTECv5JwNmtU-1" value=":Object" style="shape=umlLifeline;perimeter=lifelinePerimeter;container=1;collapsible=0;recursiveResize=0;rounded=0;shadow=0;strokeWidth=1;" vertex="1" parent="1">
          <mxGeometry x="130" y="90" width="100" height="300" as="geometry" />
        </mxCell>
        <mxCell id="OUyavA1izTECv5JwNmtU-2" value="" style="points=[];perimeter=orthogonalPerimeter;rounded=0;shadow=0;strokeWidth=1;" vertex="1" parent="OUyavA1izTECv5JwNmtU-1">
          <mxGeometry x="45" y="70" width="10" height="190" as="geometry" />
        </mxCell>
        <mxCell id="OUyavA1izTECv5JwNmtU-3" value="dispatch" style="verticalAlign=bottom;startArrow=oval;endArrow=block;startSize=8;shadow=0;strokeWidth=1;" edge="1" parent="OUyavA1izTECv5JwNmtU-1" target="OUyavA1izTECv5JwNmtU-2">
          <mxGeometry relative="1" as="geometry">
            <mxPoint x="-15" y="70" as="sourcePoint" />
          </mxGeometry>
        </mxCell>
        <mxCell id="OUyavA1izTECv5JwNmtU-4" value="" style="points=[];perimeter=orthogonalPerimeter;rounded=0;shadow=0;strokeWidth=1;" vertex="1" parent="OUyavA1izTECv5JwNmtU-1">
          <mxGeometry x="50" y="120" width="10" height="80" as="geometry" />
        </mxCell>
        <mxCell id="OUyavA1izTECv5JwNmtU-5" value=":Object" style="shape=umlLifeline;perimeter=lifelinePerimeter;container=1;collapsible=0;recursiveResize=0;rounded=0;shadow=0;strokeWidth=1;" vertex="1" parent="1">
          <mxGeometry x="310" y="90" width="100" height="300" as="geometry" />
        </mxCell>
        <mxCell id="OUyavA1izTECv5JwNmtU-6" value="" style="points=[];perimeter=orthogonalPerimeter;rounded=0;shadow=0;strokeWidth=1;" vertex="1" parent="OUyavA1izTECv5JwNmtU-5">
          <mxGeometry x="45" y="80" width="10" height="160" as="geometry" />
        </mxCell>
        <mxCell id="OUyavA1izTECv5JwNmtU-7" value="return" style="verticalAlign=bottom;endArrow=open;dashed=1;endSize=8;exitX=0;exitY=0.95;shadow=0;strokeWidth=1;" edge="1" parent="1" source="OUyavA1izTECv5JwNmtU-6" target="OUyavA1izTECv5JwNmtU-2">
          <mxGeometry relative="1" as="geometry">
            <mxPoint x="285" y="246" as="targetPoint" />
          </mxGeometry>
        </mxCell>
        <mxCell id="OUyavA1izTECv5JwNmtU-8" value="dispatch" style="verticalAlign=bottom;endArrow=block;entryX=0;entryY=0;shadow=0;strokeWidth=1;" edge="1" parent="1" source="OUyavA1izTECv5JwNmtU-2" target="OUyavA1izTECv5JwNmtU-6">
          <mxGeometry relative="1" as="geometry">
            <mxPoint x="285" y="170" as="sourcePoint" />
          </mxGeometry>
        </mxCell>
        <mxCell id="OUyavA1izTECv5JwNmtU-9" value="callback" style="verticalAlign=bottom;endArrow=block;entryX=1;entryY=0;shadow=0;strokeWidth=1;" edge="1" parent="1" source="OUyavA1izTECv5JwNmtU-6" target="OUyavA1izTECv5JwNmtU-4">
          <mxGeometry relative="1" as="geometry">
            <mxPoint x="250" y="210" as="sourcePoint" />
          </mxGeometry>
        </mxCell>
        <mxCell id="OUyavA1izTECv5JwNmtU-10" value="return" style="verticalAlign=bottom;endArrow=open;dashed=1;endSize=8;exitX=1;exitY=0.95;shadow=0;strokeWidth=1;" edge="1" parent="1" source="OUyavA1izTECv5JwNmtU-4" target="OUyavA1izTECv5JwNmtU-6">
          <mxGeometry relative="1" as="geometry">
            <mxPoint x="250" y="267" as="targetPoint" />
          </mxGeometry>
        </mxCell>
        <mxCell id="OUyavA1izTECv5JwNmtU-11" value=":Object" style="shape=umlLifeline;perimeter=lifelinePerimeter;container=1;collapsible=0;recursiveResize=0;rounded=0;shadow=0;strokeWidth=1;" vertex="1" parent="1">
          <mxGeometry x="140" y="100" width="100" height="300" as="geometry" />
        </mxCell>
        <mxCell id="OUyavA1izTECv5JwNmtU-12" value="" style="points=[];perimeter=orthogonalPerimeter;rounded=0;shadow=0;strokeWidth=1;" vertex="1" parent="OUyavA1izTECv5JwNmtU-11">
          <mxGeometry x="45" y="70" width="10" height="190" as="geometry" />
        </mxCell>
        <mxCell id="OUyavA1izTECv5JwNmtU-13" value="dispatch" style="verticalAlign=bottom;startArrow=oval;endArrow=block;startSize=8;shadow=0;strokeWidth=1;" edge="1" parent="OUyavA1izTECv5JwNmtU-11" target="OUyavA1izTECv5JwNmtU-12">
          <mxGeometry relative="1" as="geometry">
            <mxPoint x="-15" y="70" as="sourcePoint" />
          </mxGeometry>
        </mxCell>
        <mxCell id="OUyavA1izTECv5JwNmtU-14" value="" style="points=[];perimeter=orthogonalPerimeter;rounded=0;shadow=0;strokeWidth=1;" vertex="1" parent="OUyavA1izTECv5JwNmtU-11">
          <mxGeometry x="50" y="120" width="10" height="80" as="geometry" />
        </mxCell>
        <mxCell id="OUyavA1izTECv5JwNmtU-15" value=":Object" style="shape=umlLifeline;perimeter=lifelinePerimeter;container=1;collapsible=0;recursiveResize=0;rounded=0;shadow=0;strokeWidth=1;" vertex="1" parent="1">
          <mxGeometry x="320" y="100" width="100" height="300" as="geometry" />
        </mxCell>
        <mxCell id="OUyavA1izTECv5JwNmtU-16" value="" style="points=[];perimeter=orthogonalPerimeter;rounded=0;shadow=0;strokeWidth=1;" vertex="1" parent="OUyavA1izTECv5JwNmtU-15">
          <mxGeometry x="45" y="80" width="10" height="160" as="geometry" />
        </mxCell>
        <mxCell id="OUyavA1izTECv5JwNmtU-17" value="return" style="verticalAlign=bottom;endArrow=open;dashed=1;endSize=8;exitX=0;exitY=0.95;shadow=0;strokeWidth=1;" edge="1" parent="1" source="OUyavA1izTECv5JwNmtU-16" target="OUyavA1izTECv5JwNmtU-12">
          <mxGeometry relative="1" as="geometry">
            <mxPoint x="295" y="256" as="targetPoint" />
          </mxGeometry>
        </mxCell>
        <mxCell id="OUyavA1izTECv5JwNmtU-18" value="dispatch" style="verticalAlign=bottom;endArrow=block;entryX=0;entryY=0;shadow=0;strokeWidth=1;" edge="1" parent="1" source="OUyavA1izTECv5JwNmtU-12" target="OUyavA1izTECv5JwNmtU-16">
          <mxGeometry relative="1" as="geometry">
            <mxPoint x="295" y="180" as="sourcePoint" />
          </mxGeometry>
        </mxCell>
        <mxCell id="OUyavA1izTECv5JwNmtU-19" value="callback" style="verticalAlign=bottom;endArrow=block;entryX=1;entryY=0;shadow=0;strokeWidth=1;" edge="1" parent="1" source="OUyavA1izTECv5JwNmtU-16" target="OUyavA1izTECv5JwNmtU-14">
          <mxGeometry relative="1" as="geometry">
            <mxPoint x="260" y="220" as="sourcePoint" />
          </mxGeometry>
        </mxCell>
        <mxCell id="OUyavA1izTECv5JwNmtU-20" value="return" style="verticalAlign=bottom;endArrow=open;dashed=1;endSize=8;exitX=1;exitY=0.95;shadow=0;strokeWidth=1;" edge="1" parent="1" source="OUyavA1izTECv5JwNmtU-14" target="OUyavA1izTECv5JwNmtU-16">
          <mxGeometry relative="1" as="geometry">
            <mxPoint x="260" y="277" as="targetPoint" />
          </mxGeometry>
        </mxCell>
        <mxCell id="OUyavA1izTECv5JwNmtU-21" value=":Object" style="shape=umlLifeline;perimeter=lifelinePerimeter;container=1;collapsible=0;recursiveResize=0;rounded=0;shadow=0;strokeWidth=1;" vertex="1" parent="1">
          <mxGeometry x="150" y="110" width="100" height="300" as="geometry" />
        </mxCell>
        <mxCell id="OUyavA1izTECv5JwNmtU-22" value="" style="points=[];perimeter=orthogonalPerimeter;rounded=0;shadow=0;strokeWidth=1;" vertex="1" parent="OUyavA1izTECv5JwNmtU-21">
          <mxGeometry x="45" y="70" width="10" height="190" as="geometry" />
        </mxCell>
        <mxCell id="OUyavA1izTECv5JwNmtU-23" value="dispatch" style="verticalAlign=bottom;startArrow=oval;endArrow=block;startSize=8;shadow=0;strokeWidth=1;" edge="1" parent="OUyavA1izTECv5JwNmtU-21" target="OUyavA1izTECv5JwNmtU-22">
          <mxGeometry relative="1" as="geometry">
            <mxPoint x="-15" y="70" as="sourcePoint" />
          </mxGeometry>
        </mxCell>
        <mxCell id="OUyavA1izTECv5JwNmtU-24" value="" style="points=[];perimeter=orthogonalPerimeter;rounded=0;shadow=0;strokeWidth=1;" vertex="1" parent="OUyavA1izTECv5JwNmtU-21">
          <mxGeometry x="50" y="120" width="10" height="80" as="geometry" />
        </mxCell>
        <mxCell id="OUyavA1izTECv5JwNmtU-25" value=":Object" style="shape=umlLifeline;perimeter=lifelinePerimeter;container=1;collapsible=0;recursiveResize=0;rounded=0;shadow=0;strokeWidth=1;" vertex="1" parent="1">
          <mxGeometry x="330" y="110" width="100" height="300" as="geometry" />
        </mxCell>
        <mxCell id="OUyavA1izTECv5JwNmtU-26" value="" style="points=[];perimeter=orthogonalPerimeter;rounded=0;shadow=0;strokeWidth=1;" vertex="1" parent="OUyavA1izTECv5JwNmtU-25">
          <mxGeometry x="45" y="80" width="10" height="160" as="geometry" />
        </mxCell>
        <mxCell id="OUyavA1izTECv5JwNmtU-27" value="return" style="verticalAlign=bottom;endArrow=open;dashed=1;endSize=8;exitX=0;exitY=0.95;shadow=0;strokeWidth=1;" edge="1" parent="1" source="OUyavA1izTECv5JwNmtU-26" target="OUyavA1izTECv5JwNmtU-22">
          <mxGeometry relative="1" as="geometry">
            <mxPoint x="305" y="266" as="targetPoint" />
          </mxGeometry>
        </mxCell>
        <mxCell id="OUyavA1izTECv5JwNmtU-28" value="dispatch" style="verticalAlign=bottom;endArrow=block;entryX=0;entryY=0;shadow=0;strokeWidth=1;" edge="1" parent="1" source="OUyavA1izTECv5JwNmtU-22" target="OUyavA1izTECv5JwNmtU-26">
          <mxGeometry relative="1" as="geometry">
            <mxPoint x="305" y="190" as="sourcePoint" />
          </mxGeometry>
        </mxCell>
        <mxCell id="OUyavA1izTECv5JwNmtU-29" value="callback" style="verticalAlign=bottom;endArrow=block;entryX=1;entryY=0;shadow=0;strokeWidth=1;" edge="1" parent="1" source="OUyavA1izTECv5JwNmtU-26" target="OUyavA1izTECv5JwNmtU-24">
          <mxGeometry relative="1" as="geometry">
            <mxPoint x="270" y="230" as="sourcePoint" />
          </mxGeometry>
        </mxCell>
        <mxCell id="OUyavA1izTECv5JwNmtU-30" value="return" style="verticalAlign=bottom;endArrow=open;dashed=1;endSize=8;exitX=1;exitY=0.95;shadow=0;strokeWidth=1;" edge="1" parent="1" source="OUyavA1izTECv5JwNmtU-24" target="OUyavA1izTECv5JwNmtU-26">
          <mxGeometry relative="1" as="geometry">
            <mxPoint x="270" y="287" as="targetPoint" />
          </mxGeometry>
        </mxCell>
        <mxCell id="OUyavA1izTECv5JwNmtU-31" value=":Object" style="shape=umlLifeline;perimeter=lifelinePerimeter;container=1;collapsible=0;recursiveResize=0;rounded=0;shadow=0;strokeWidth=1;" vertex="1" parent="1">
          <mxGeometry x="160" y="120" width="100" height="300" as="geometry" />
        </mxCell>
        <mxCell id="OUyavA1izTECv5JwNmtU-32" value="" style="points=[];perimeter=orthogonalPerimeter;rounded=0;shadow=0;strokeWidth=1;" vertex="1" parent="OUyavA1izTECv5JwNmtU-31">
          <mxGeometry x="45" y="70" width="10" height="190" as="geometry" />
        </mxCell>
        <mxCell id="OUyavA1izTECv5JwNmtU-33" value="dispatch" style="verticalAlign=bottom;startArrow=oval;endArrow=block;startSize=8;shadow=0;strokeWidth=1;" edge="1" parent="OUyavA1izTECv5JwNmtU-31" target="OUyavA1izTECv5JwNmtU-32">
          <mxGeometry relative="1" as="geometry">
            <mxPoint x="-15" y="70" as="sourcePoint" />
          </mxGeometry>
        </mxCell>
        <mxCell id="OUyavA1izTECv5JwNmtU-34" value="" style="points=[];perimeter=orthogonalPerimeter;rounded=0;shadow=0;strokeWidth=1;" vertex="1" parent="OUyavA1izTECv5JwNmtU-31">
          <mxGeometry x="50" y="120" width="10" height="80" as="geometry" />
        </mxCell>
        <mxCell id="OUyavA1izTECv5JwNmtU-35" value=":Object" style="shape=umlLifeline;perimeter=lifelinePerimeter;container=1;collapsible=0;recursiveResize=0;rounded=0;shadow=0;strokeWidth=1;" vertex="1" parent="1">
          <mxGeometry x="340" y="120" width="100" height="300" as="geometry" />
        </mxCell>
        <mxCell id="OUyavA1izTECv5JwNmtU-36" value="" style="points=[];perimeter=orthogonalPerimeter;rounded=0;shadow=0;strokeWidth=1;" vertex="1" parent="OUyavA1izTECv5JwNmtU-35">
          <mxGeometry x="45" y="80" width="10" height="160" as="geometry" />
        </mxCell>
        <mxCell id="OUyavA1izTECv5JwNmtU-37" value="return" style="verticalAlign=bottom;endArrow=open;dashed=1;endSize=8;exitX=0;exitY=0.95;shadow=0;strokeWidth=1;" edge="1" parent="1" source="OUyavA1izTECv5JwNmtU-36" target="OUyavA1izTECv5JwNmtU-32">
          <mxGeometry relative="1" as="geometry">
            <mxPoint x="315" y="276" as="targetPoint" />
          </mxGeometry>
        </mxCell>
        <mxCell id="OUyavA1izTECv5JwNmtU-38" value="dispatch" style="verticalAlign=bottom;endArrow=block;entryX=0;entryY=0;shadow=0;strokeWidth=1;" edge="1" parent="1" source="OUyavA1izTECv5JwNmtU-32" target="OUyavA1izTECv5JwNmtU-36">
          <mxGeometry relative="1" as="geometry">
            <mxPoint x="315" y="200" as="sourcePoint" />
          </mxGeometry>
        </mxCell>
        <mxCell id="OUyavA1izTECv5JwNmtU-39" value="callback" style="verticalAlign=bottom;endArrow=block;entryX=1;entryY=0;shadow=0;strokeWidth=1;" edge="1" parent="1" source="OUyavA1izTECv5JwNmtU-36" target="OUyavA1izTECv5JwNmtU-34">
          <mxGeometry relative="1" as="geometry">
            <mxPoint x="280" y="240" as="sourcePoint" />
          </mxGeometry>
        </mxCell>
        <mxCell id="OUyavA1izTECv5JwNmtU-40" value="return" style="verticalAlign=bottom;endArrow=open;dashed=1;endSize=8;exitX=1;exitY=0.95;shadow=0;strokeWidth=1;" edge="1" parent="1" source="OUyavA1izTECv5JwNmtU-34" target="OUyavA1izTECv5JwNmtU-36">
          <mxGeometry relative="1" as="geometry">
            <mxPoint x="280" y="297" as="targetPoint" />
          </mxGeometry>
        </mxCell>
        <mxCell id="OUyavA1izTECv5JwNmtU-41" value=":Object" style="shape=umlLifeline;perimeter=lifelinePerimeter;container=1;collapsible=0;recursiveResize=0;rounded=0;shadow=0;strokeWidth=1;" vertex="1" parent="1">
          <mxGeometry x="170" y="130" width="100" height="300" as="geometry" />
        </mxCell>
        <mxCell id="OUyavA1izTECv5JwNmtU-42" value="" style="points=[];perimeter=orthogonalPerimeter;rounded=0;shadow=0;strokeWidth=1;" vertex="1" parent="OUyavA1izTECv5JwNmtU-41">
          <mxGeometry x="45" y="70" width="10" height="190" as="geometry" />
        </mxCell>
        <mxCell id="OUyavA1izTECv5JwNmtU-43" value="dispatch" style="verticalAlign=bottom;startArrow=oval;endArrow=block;startSize=8;shadow=0;strokeWidth=1;" edge="1" parent="OUyavA1izTECv5JwNmtU-41" target="OUyavA1izTECv5JwNmtU-42">
          <mxGeometry relative="1" as="geometry">
            <mxPoint x="-15" y="70" as="sourcePoint" />
          </mxGeometry>
        </mxCell>
        <mxCell id="OUyavA1izTECv5JwNmtU-44" value="" style="points=[];perimeter=orthogonalPerimeter;rounded=0;shadow=0;strokeWidth=1;" vertex="1" parent="OUyavA1izTECv5JwNmtU-41">
          <mxGeometry x="50" y="120" width="10" height="80" as="geometry" />
        </mxCell>
        <mxCell id="OUyavA1izTECv5JwNmtU-45" value=":Object" style="shape=umlLifeline;perimeter=lifelinePerimeter;container=1;collapsible=0;recursiveResize=0;rounded=0;shadow=0;strokeWidth=1;" vertex="1" parent="1">
          <mxGeometry x="350" y="130" width="100" height="300" as="geometry" />
        </mxCell>
        <mxCell id="OUyavA1izTECv5JwNmtU-46" value="" style="points=[];perimeter=orthogonalPerimeter;rounded=0;shadow=0;strokeWidth=1;" vertex="1" parent="OUyavA1izTECv5JwNmtU-45">
          <mxGeometry x="45" y="80" width="10" height="160" as="geometry" />
        </mxCell>
        <mxCell id="OUyavA1izTECv5JwNmtU-47" value="return" style="verticalAlign=bottom;endArrow=open;dashed=1;endSize=8;exitX=0;exitY=0.95;shadow=0;strokeWidth=1;" edge="1" parent="1" source="OUyavA1izTECv5JwNmtU-46" target="OUyavA1izTECv5JwNmtU-42">
          <mxGeometry relative="1" as="geometry">
            <mxPoint x="325" y="286" as="targetPoint" />
          </mxGeometry>
        </mxCell>
        <mxCell id="OUyavA1izTECv5JwNmtU-48" value="dispatch" style="verticalAlign=bottom;endArrow=block;entryX=0;entryY=0;shadow=0;strokeWidth=1;" edge="1" parent="1" source="OUyavA1izTECv5JwNmtU-42" target="OUyavA1izTECv5JwNmtU-46">
          <mxGeometry relative="1" as="geometry">
            <mxPoint x="325" y="210" as="sourcePoint" />
          </mxGeometry>
        </mxCell>
        <mxCell id="OUyavA1izTECv5JwNmtU-49" value="callback" style="verticalAlign=bottom;endArrow=block;entryX=1;entryY=0;shadow=0;strokeWidth=1;" edge="1" parent="1" source="OUyavA1izTECv5JwNmtU-46" target="OUyavA1izTECv5JwNmtU-44">
          <mxGeometry relative="1" as="geometry">
            <mxPoint x="290" y="250" as="sourcePoint" />
          </mxGeometry>
        </mxCell>
        <mxCell id="OUyavA1izTECv5JwNmtU-50" value="return" style="verticalAlign=bottom;endArrow=open;dashed=1;endSize=8;exitX=1;exitY=0.95;shadow=0;strokeWidth=1;" edge="1" parent="1" source="OUyavA1izTECv5JwNmtU-44" target="OUyavA1izTECv5JwNmtU-46">
          <mxGeometry relative="1" as="geometry">
            <mxPoint x="290" y="307" as="targetPoint" />
          </mxGeometry>
        </mxCell>
        <mxCell id="OUyavA1izTECv5JwNmtU-51" value=":Object" style="shape=umlLifeline;perimeter=lifelinePerimeter;container=1;collapsible=0;recursiveResize=0;rounded=0;shadow=0;strokeWidth=1;" vertex="1" parent="1">
          <mxGeometry x="180" y="140" width="100" height="300" as="geometry" />
        </mxCell>
        <mxCell id="OUyavA1izTECv5JwNmtU-52" value="" style="points=[];perimeter=orthogonalPerimeter;rounded=0;shadow=0;strokeWidth=1;" vertex="1" parent="OUyavA1izTECv5JwNmtU-51">
          <mxGeometry x="45" y="70" width="10" height="190" as="geometry" />
        </mxCell>
        <mxCell id="OUyavA1izTECv5JwNmtU-53" value="dispatch" style="verticalAlign=bottom;startArrow=oval;endArrow=block;startSize=8;shadow=0;strokeWidth=1;" edge="1" parent="OUyavA1izTECv5JwNmtU-51" target="OUyavA1izTECv5JwNmtU-52">
          <mxGeometry relative="1" as="geometry">
            <mxPoint x="-15" y="70" as="sourcePoint" />
          </mxGeometry>
        </mxCell>
        <mxCell id="OUyavA1izTECv5JwNmtU-54" value="" style="points=[];perimeter=orthogonalPerimeter;rounded=0;shadow=0;strokeWidth=1;" vertex="1" parent="OUyavA1izTECv5JwNmtU-51">
          <mxGeometry x="50" y="120" width="10" height="80" as="geometry" />
        </mxCell>
        <mxCell id="OUyavA1izTECv5JwNmtU-55" value=":Object" style="shape=umlLifeline;perimeter=lifelinePerimeter;container=1;collapsible=0;recursiveResize=0;rounded=0;shadow=0;strokeWidth=1;" vertex="1" parent="1">
          <mxGeometry x="360" y="140" width="100" height="300" as="geometry" />
        </mxCell>
        <mxCell id="OUyavA1izTECv5JwNmtU-56" value="" style="points=[];perimeter=orthogonalPerimeter;rounded=0;shadow=0;strokeWidth=1;" vertex="1" parent="OUyavA1izTECv5JwNmtU-55">
          <mxGeometry x="45" y="80" width="10" height="160" as="geometry" />
        </mxCell>
        <mxCell id="OUyavA1izTECv5JwNmtU-57" value="return" style="verticalAlign=bottom;endArrow=open;dashed=1;endSize=8;exitX=0;exitY=0.95;shadow=0;strokeWidth=1;" edge="1" parent="1" source="OUyavA1izTECv5JwNmtU-56" target="OUyavA1izTECv5JwNmtU-52">
          <mxGeometry relative="1" as="geometry">
            <mxPoint x="335" y="296" as="targetPoint" />
          </mxGeometry>
        </mxCell>
        <mxCell id="OUyavA1izTECv5JwNmtU-58" value="dispatch" style="verticalAlign=bottom;endArrow=block;entryX=0;entryY=0;shadow=0;strokeWidth=1;" edge="1" parent="1" source="OUyavA1izTECv5JwNmtU-52" target="OUyavA1izTECv5JwNmtU-56">
          <mxGeometry relative="1" as="geometry">
            <mxPoint x="335" y="220" as="sourcePoint" />
          </mxGeometry>
        </mxCell>
        <mxCell id="OUyavA1izTECv5JwNmtU-59" value="callback" style="verticalAlign=bottom;endArrow=block;entryX=1;entryY=0;shadow=0;strokeWidth=1;" edge="1" parent="1" source="OUyavA1izTECv5JwNmtU-56" target="OUyavA1izTECv5JwNmtU-54">
          <mxGeometry relative="1" as="geometry">
            <mxPoint x="300" y="260" as="sourcePoint" />
          </mxGeometry>
        </mxCell>
        <mxCell id="OUyavA1izTECv5JwNmtU-60" value="return" style="verticalAlign=bottom;endArrow=open;dashed=1;endSize=8;exitX=1;exitY=0.95;shadow=0;strokeWidth=1;" edge="1" parent="1" source="OUyavA1izTECv5JwNmtU-54" target="OUyavA1izTECv5JwNmtU-56">
          <mxGeometry relative="1" as="geometry">
            <mxPoint x="300" y="317" as="targetPoint" />
          </mxGeometry>
        </mxCell>
        <mxCell id="OUyavA1izTECv5JwNmtU-61" value=":Object" style="shape=umlLifeline;perimeter=lifelinePerimeter;container=1;collapsible=0;recursiveResize=0;rounded=0;shadow=0;strokeWidth=1;" vertex="1" parent="1">
          <mxGeometry x="190" y="150" width="100" height="300" as="geometry" />
        </mxCell>
        <mxCell id="OUyavA1izTECv5JwNmtU-62" value="" style="points=[];perimeter=orthogonalPerimeter;rounded=0;shadow=0;strokeWidth=1;" vertex="1" parent="OUyavA1izTECv5JwNmtU-61">
          <mxGeometry x="45" y="70" width="10" height="190" as="geometry" />
        </mxCell>
        <mxCell id="OUyavA1izTECv5JwNmtU-63" value="dispatch" style="verticalAlign=bottom;startArrow=oval;endArrow=block;startSize=8;shadow=0;strokeWidth=1;" edge="1" parent="OUyavA1izTECv5JwNmtU-61" target="OUyavA1izTECv5JwNmtU-62">
          <mxGeometry relative="1" as="geometry">
            <mxPoint x="-15" y="70" as="sourcePoint" />
          </mxGeometry>
        </mxCell>
        <mxCell id="OUyavA1izTECv5JwNmtU-64" value="" style="points=[];perimeter=orthogonalPerimeter;rounded=0;shadow=0;strokeWidth=1;" vertex="1" parent="OUyavA1izTECv5JwNmtU-61">
          <mxGeometry x="50" y="120" width="10" height="80" as="geometry" />
        </mxCell>
        <mxCell id="OUyavA1izTECv5JwNmtU-65" value=":Object" style="shape=umlLifeline;perimeter=lifelinePerimeter;container=1;collapsible=0;recursiveResize=0;rounded=0;shadow=0;strokeWidth=1;" vertex="1" parent="1">
          <mxGeometry x="370" y="150" width="100" height="300" as="geometry" />
        </mxCell>
        <mxCell id="OUyavA1izTECv5JwNmtU-66" value="" style="points=[];perimeter=orthogonalPerimeter;rounded=0;shadow=0;strokeWidth=1;" vertex="1" parent="OUyavA1izTECv5JwNmtU-65">
          <mxGeometry x="45" y="80" width="10" height="160" as="geometry" />
        </mxCell>
        <mxCell id="OUyavA1izTECv5JwNmtU-67" value="return" style="verticalAlign=bottom;endArrow=open;dashed=1;endSize=8;exitX=0;exitY=0.95;shadow=0;strokeWidth=1;" edge="1" parent="1" source="OUyavA1izTECv5JwNmtU-66" target="OUyavA1izTECv5JwNmtU-62">
          <mxGeometry relative="1" as="geometry">
            <mxPoint x="345" y="306" as="targetPoint" />
          </mxGeometry>
        </mxCell>
        <mxCell id="OUyavA1izTECv5JwNmtU-68" value="dispatch" style="verticalAlign=bottom;endArrow=block;entryX=0;entryY=0;shadow=0;strokeWidth=1;" edge="1" parent="1" source="OUyavA1izTECv5JwNmtU-62" target="OUyavA1izTECv5JwNmtU-66">
          <mxGeometry relative="1" as="geometry">
            <mxPoint x="345" y="230" as="sourcePoint" />
          </mxGeometry>
        </mxCell>
        <mxCell id="OUyavA1izTECv5JwNmtU-69" value="callback" style="verticalAlign=bottom;endArrow=block;entryX=1;entryY=0;shadow=0;strokeWidth=1;" edge="1" parent="1" source="OUyavA1izTECv5JwNmtU-66" target="OUyavA1izTECv5JwNmtU-64">
          <mxGeometry relative="1" as="geometry">
            <mxPoint x="310" y="270" as="sourcePoint" />
          </mxGeometry>
        </mxCell>
        <mxCell id="OUyavA1izTECv5JwNmtU-70" value="return" style="verticalAlign=bottom;endArrow=open;dashed=1;endSize=8;exitX=1;exitY=0.95;shadow=0;strokeWidth=1;" edge="1" parent="1" source="OUyavA1izTECv5JwNmtU-64" target="OUyavA1izTECv5JwNmtU-66">
          <mxGeometry relative="1" as="geometry">
            <mxPoint x="310" y="327" as="targetPoint" />
          </mxGeometry>
        </mxCell>
        <mxCell id="OUyavA1izTECv5JwNmtU-71" value=":Object" style="shape=umlLifeline;perimeter=lifelinePerimeter;container=1;collapsible=0;recursiveResize=0;rounded=0;shadow=0;strokeWidth=1;" vertex="1" parent="1">
          <mxGeometry x="200" y="160" width="100" height="300" as="geometry" />
        </mxCell>
        <mxCell id="OUyavA1izTECv5JwNmtU-72" value="" style="points=[];perimeter=orthogonalPerimeter;rounded=0;shadow=0;strokeWidth=1;" vertex="1" parent="OUyavA1izTECv5JwNmtU-71">
          <mxGeometry x="45" y="70" width="10" height="190" as="geometry" />
        </mxCell>
        <mxCell id="OUyavA1izTECv5JwNmtU-73" value="dispatch" style="verticalAlign=bottom;startArrow=oval;endArrow=block;startSize=8;shadow=0;strokeWidth=1;" edge="1" parent="OUyavA1izTECv5JwNmtU-71" target="OUyavA1izTECv5JwNmtU-72">
          <mxGeometry relative="1" as="geometry">
            <mxPoint x="-15" y="70" as="sourcePoint" />
          </mxGeometry>
        </mxCell>
        <mxCell id="OUyavA1izTECv5JwNmtU-74" value="" style="points=[];perimeter=orthogonalPerimeter;rounded=0;shadow=0;strokeWidth=1;" vertex="1" parent="OUyavA1izTECv5JwNmtU-71">
          <mxGeometry x="50" y="120" width="10" height="80" as="geometry" />
        </mxCell>
        <mxCell id="OUyavA1izTECv5JwNmtU-75" value=":Object" style="shape=umlLifeline;perimeter=lifelinePerimeter;container=1;collapsible=0;recursiveResize=0;rounded=0;shadow=0;strokeWidth=1;" vertex="1" parent="1">
          <mxGeometry x="380" y="160" width="100" height="300" as="geometry" />
        </mxCell>
        <mxCell id="OUyavA1izTECv5JwNmtU-76" value="" style="points=[];perimeter=orthogonalPerimeter;rounded=0;shadow=0;strokeWidth=1;" vertex="1" parent="OUyavA1izTECv5JwNmtU-75">
          <mxGeometry x="45" y="80" width="10" height="160" as="geometry" />
        </mxCell>
        <mxCell id="OUyavA1izTECv5JwNmtU-77" value="return" style="verticalAlign=bottom;endArrow=open;dashed=1;endSize=8;exitX=0;exitY=0.95;shadow=0;strokeWidth=1;" edge="1" parent="1" source="OUyavA1izTECv5JwNmtU-76" target="OUyavA1izTECv5JwNmtU-72">
          <mxGeometry relative="1" as="geometry">
            <mxPoint x="355" y="316" as="targetPoint" />
          </mxGeometry>
        </mxCell>
        <mxCell id="OUyavA1izTECv5JwNmtU-78" value="dispatch" style="verticalAlign=bottom;endArrow=block;entryX=0;entryY=0;shadow=0;strokeWidth=1;" edge="1" parent="1" source="OUyavA1izTECv5JwNmtU-72" target="OUyavA1izTECv5JwNmtU-76">
          <mxGeometry relative="1" as="geometry">
            <mxPoint x="355" y="240" as="sourcePoint" />
          </mxGeometry>
        </mxCell>
        <mxCell id="OUyavA1izTECv5JwNmtU-79" value="callback" style="verticalAlign=bottom;endArrow=block;entryX=1;entryY=0;shadow=0;strokeWidth=1;" edge="1" parent="1" source="OUyavA1izTECv5JwNmtU-76" target="OUyavA1izTECv5JwNmtU-74">
          <mxGeometry relative="1" as="geometry">
            <mxPoint x="320" y="280" as="sourcePoint" />
          </mxGeometry>
        </mxCell>
        <mxCell id="OUyavA1izTECv5JwNmtU-80" value="return" style="verticalAlign=bottom;endArrow=open;dashed=1;endSize=8;exitX=1;exitY=0.95;shadow=0;strokeWidth=1;" edge="1" parent="1" source="OUyavA1izTECv5JwNmtU-74" target="OUyavA1izTECv5JwNmtU-76">
          <mxGeometry relative="1" as="geometry">
            <mxPoint x="320" y="337" as="targetPoint" />
          </mxGeometry>
        </mxCell>
        <mxCell id="OUyavA1izTECv5JwNmtU-81" value=":Object" style="shape=umlLifeline;perimeter=lifelinePerimeter;container=1;collapsible=0;recursiveResize=0;rounded=0;shadow=0;strokeWidth=1;" vertex="1" parent="1">
          <mxGeometry x="210" y="170" width="100" height="300" as="geometry" />
        </mxCell>
        <mxCell id="OUyavA1izTECv5JwNmtU-82" value="" style="points=[];perimeter=orthogonalPerimeter;rounded=0;shadow=0;strokeWidth=1;" vertex="1" parent="OUyavA1izTECv5JwNmtU-81">
          <mxGeometry x="45" y="70" width="10" height="190" as="geometry" />
        </mxCell>
        <mxCell id="OUyavA1izTECv5JwNmtU-83" value="dispatch" style="verticalAlign=bottom;startArrow=oval;endArrow=block;startSize=8;shadow=0;strokeWidth=1;" edge="1" parent="OUyavA1izTECv5JwNmtU-81" target="OUyavA1izTECv5JwNmtU-82">
          <mxGeometry relative="1" as="geometry">
            <mxPoint x="-15" y="70" as="sourcePoint" />
          </mxGeometry>
        </mxCell>
        <mxCell id="OUyavA1izTECv5JwNmtU-84" value="" style="points=[];perimeter=orthogonalPerimeter;rounded=0;shadow=0;strokeWidth=1;" vertex="1" parent="OUyavA1izTECv5JwNmtU-81">
          <mxGeometry x="50" y="120" width="10" height="80" as="geometry" />
        </mxCell>
        <mxCell id="OUyavA1izTECv5JwNmtU-85" value=":Object" style="shape=umlLifeline;perimeter=lifelinePerimeter;container=1;collapsible=0;recursiveResize=0;rounded=0;shadow=0;strokeWidth=1;" vertex="1" parent="1">
          <mxGeometry x="390" y="170" width="100" height="300" as="geometry" />
        </mxCell>
        <mxCell id="OUyavA1izTECv5JwNmtU-86" value="" style="points=[];perimeter=orthogonalPerimeter;rounded=0;shadow=0;strokeWidth=1;" vertex="1" parent="OUyavA1izTECv5JwNmtU-85">
          <mxGeometry x="45" y="80" width="10" height="160" as="geometry" />
        </mxCell>
        <mxCell id="OUyavA1izTECv5JwNmtU-87" value="return" style="verticalAlign=bottom;endArrow=open;dashed=1;endSize=8;exitX=0;exitY=0.95;shadow=0;strokeWidth=1;" edge="1" parent="1" source="OUyavA1izTECv5JwNmtU-86" target="OUyavA1izTECv5JwNmtU-82">
          <mxGeometry relative="1" as="geometry">
            <mxPoint x="365" y="326" as="targetPoint" />
          </mxGeometry>
        </mxCell>
        <mxCell id="OUyavA1izTECv5JwNmtU-88" value="dispatch" style="verticalAlign=bottom;endArrow=block;entryX=0;entryY=0;shadow=0;strokeWidth=1;" edge="1" parent="1" source="OUyavA1izTECv5JwNmtU-82" target="OUyavA1izTECv5JwNmtU-86">
          <mxGeometry relative="1" as="geometry">
            <mxPoint x="365" y="250" as="sourcePoint" />
          </mxGeometry>
        </mxCell>
        <mxCell id="OUyavA1izTECv5JwNmtU-89" value="callback" style="verticalAlign=bottom;endArrow=block;entryX=1;entryY=0;shadow=0;strokeWidth=1;" edge="1" parent="1" source="OUyavA1izTECv5JwNmtU-86" target="OUyavA1izTECv5JwNmtU-84">
          <mxGeometry relative="1" as="geometry">
            <mxPoint x="330" y="290" as="sourcePoint" />
          </mxGeometry>
        </mxCell>
        <mxCell id="OUyavA1izTECv5JwNmtU-90" value="return" style="verticalAlign=bottom;endArrow=open;dashed=1;endSize=8;exitX=1;exitY=0.95;shadow=0;strokeWidth=1;" edge="1" parent="1" source="OUyavA1izTECv5JwNmtU-84" target="OUyavA1izTECv5JwNmtU-86">
          <mxGeometry relative="1" as="geometry">
            <mxPoint x="330" y="347" as="targetPoint" />
          </mxGeometry>
        </mxCell>
        <mxCell id="OUyavA1izTECv5JwNmtU-91" value=":Object" style="shape=umlLifeline;perimeter=lifelinePerimeter;container=1;collapsible=0;recursiveResize=0;rounded=0;shadow=0;strokeWidth=1;" vertex="1" parent="1">
          <mxGeometry x="220" y="180" width="100" height="300" as="geometry" />
        </mxCell>
        <mxCell id="OUyavA1izTECv5JwNmtU-92" value="" style="points=[];perimeter=orthogonalPerimeter;rounded=0;shadow=0;strokeWidth=1;" vertex="1" parent="OUyavA1izTECv5JwNmtU-91">
          <mxGeometry x="45" y="70" width="10" height="190" as="geometry" />
        </mxCell>
        <mxCell id="OUyavA1izTECv5JwNmtU-93" value="dispatch" style="verticalAlign=bottom;startArrow=oval;endArrow=block;startSize=8;shadow=0;strokeWidth=1;" edge="1" parent="OUyavA1izTECv5JwNmtU-91" target="OUyavA1izTECv5JwNmtU-92">
          <mxGeometry relative="1" as="geometry">
            <mxPoint x="-15" y="70" as="sourcePoint" />
          </mxGeometry>
        </mxCell>
        <mxCell id="OUyavA1izTECv5JwNmtU-94" value="" style="points=[];perimeter=orthogonalPerimeter;rounded=0;shadow=0;strokeWidth=1;" vertex="1" parent="OUyavA1izTECv5JwNmtU-91">
          <mxGeometry x="50" y="120" width="10" height="80" as="geometry" />
        </mxCell>
        <mxCell id="OUyavA1izTECv5JwNmtU-95" value=":Object" style="shape=umlLifeline;perimeter=lifelinePerimeter;container=1;collapsible=0;recursiveResize=0;rounded=0;shadow=0;strokeWidth=1;" vertex="1" parent="1">
          <mxGeometry x="400" y="180" width="100" height="300" as="geometry" />
        </mxCell>
        <mxCell id="OUyavA1izTECv5JwNmtU-96" value="" style="points=[];perimeter=orthogonalPerimeter;rounded=0;shadow=0;strokeWidth=1;" vertex="1" parent="OUyavA1izTECv5JwNmtU-95">
          <mxGeometry x="45" y="80" width="10" height="160" as="geometry" />
        </mxCell>
        <mxCell id="OUyavA1izTECv5JwNmtU-97" value="return" style="verticalAlign=bottom;endArrow=open;dashed=1;endSize=8;exitX=0;exitY=0.95;shadow=0;strokeWidth=1;" edge="1" parent="1" source="OUyavA1izTECv5JwNmtU-96" target="OUyavA1izTECv5JwNmtU-92">
          <mxGeometry relative="1" as="geometry">
            <mxPoint x="375" y="336" as="targetPoint" />
          </mxGeometry>
        </mxCell>
        <mxCell id="OUyavA1izTECv5JwNmtU-98" value="dispatch" style="verticalAlign=bottom;endArrow=block;entryX=0;entryY=0;shadow=0;strokeWidth=1;" edge="1" parent="1" source="OUyavA1izTECv5JwNmtU-92" target="OUyavA1izTECv5JwNmtU-96">
          <mxGeometry relative="1" as="geometry">
            <mxPoint x="375" y="260" as="sourcePoint" />
          </mxGeometry>
        </mxCell>
        <mxCell id="OUyavA1izTECv5JwNmtU-99" value="callback" style="verticalAlign=bottom;endArrow=block;entryX=1;entryY=0;shadow=0;strokeWidth=1;" edge="1" parent="1" source="OUyavA1izTECv5JwNmtU-96" target="OUyavA1izTECv5JwNmtU-94">
          <mxGeometry relative="1" as="geometry">
            <mxPoint x="340" y="300" as="sourcePoint" />
          </mxGeometry>
        </mxCell>
        <mxCell id="OUyavA1izTECv5JwNmtU-100" value="return" style="verticalAlign=bottom;endArrow=open;dashed=1;endSize=8;exitX=1;exitY=0.95;shadow=0;strokeWidth=1;" edge="1" parent="1" source="OUyavA1izTECv5JwNmtU-94" target="OUyavA1izTECv5JwNmtU-96">
          <mxGeometry relative="1" as="geometry">
            <mxPoint x="340" y="357" as="targetPoint" />
          </mxGeometry>
        </mxCell>
        <mxCell id="OUyavA1izTECv5JwNmtU-101" value=":Object" style="shape=umlLifeline;perimeter=lifelinePerimeter;container=1;collapsible=0;recursiveResize=0;rounded=0;shadow=0;strokeWidth=1;" vertex="1" parent="1">
          <mxGeometry x="230" y="190" width="100" height="300" as="geometry" />
        </mxCell>
        <mxCell id="OUyavA1izTECv5JwNmtU-102" value="" style="points=[];perimeter=orthogonalPerimeter;rounded=0;shadow=0;strokeWidth=1;" vertex="1" parent="OUyavA1izTECv5JwNmtU-101">
          <mxGeometry x="45" y="70" width="10" height="190" as="geometry" />
        </mxCell>
        <mxCell id="OUyavA1izTECv5JwNmtU-103" value="dispatch" style="verticalAlign=bottom;startArrow=oval;endArrow=block;startSize=8;shadow=0;strokeWidth=1;" edge="1" parent="OUyavA1izTECv5JwNmtU-101" target="OUyavA1izTECv5JwNmtU-102">
          <mxGeometry relative="1" as="geometry">
            <mxPoint x="-15" y="70" as="sourcePoint" />
          </mxGeometry>
        </mxCell>
        <mxCell id="OUyavA1izTECv5JwNmtU-104" value="" style="points=[];perimeter=orthogonalPerimeter;rounded=0;shadow=0;strokeWidth=1;" vertex="1" parent="OUyavA1izTECv5JwNmtU-101">
          <mxGeometry x="50" y="120" width="10" height="80" as="geometry" />
        </mxCell>
        <mxCell id="OUyavA1izTECv5JwNmtU-105" value=":Object" style="shape=umlLifeline;perimeter=lifelinePerimeter;container=1;collapsible=0;recursiveResize=0;rounded=0;shadow=0;strokeWidth=1;" vertex="1" parent="1">
          <mxGeometry x="410" y="190" width="100" height="300" as="geometry" />
        </mxCell>
        <mxCell id="OUyavA1izTECv5JwNmtU-106" value="" style="points=[];perimeter=orthogonalPerimeter;rounded=0;shadow=0;strokeWidth=1;" vertex="1" parent="OUyavA1izTECv5JwNmtU-105">
          <mxGeometry x="45" y="80" width="10" height="160" as="geometry" />
        </mxCell>
        <mxCell id="OUyavA1izTECv5JwNmtU-107" value="return" style="verticalAlign=bottom;endArrow=open;dashed=1;endSize=8;exitX=0;exitY=0.95;shadow=0;strokeWidth=1;" edge="1" parent="1" source="OUyavA1izTECv5JwNmtU-106" target="OUyavA1izTECv5JwNmtU-102">
          <mxGeometry relative="1" as="geometry">
            <mxPoint x="385" y="346" as="targetPoint" />
          </mxGeometry>
        </mxCell>
        <mxCell id="OUyavA1izTECv5JwNmtU-108" value="dispatch" style="verticalAlign=bottom;endArrow=block;entryX=0;entryY=0;shadow=0;strokeWidth=1;" edge="1" parent="1" source="OUyavA1izTECv5JwNmtU-102" target="OUyavA1izTECv5JwNmtU-106">
          <mxGeometry relative="1" as="geometry">
            <mxPoint x="385" y="270" as="sourcePoint" />
          </mxGeometry>
        </mxCell>
        <mxCell id="OUyavA1izTECv5JwNmtU-109" value="callback" style="verticalAlign=bottom;endArrow=block;entryX=1;entryY=0;shadow=0;strokeWidth=1;" edge="1" parent="1" source="OUyavA1izTECv5JwNmtU-106" target="OUyavA1izTECv5JwNmtU-104">
          <mxGeometry relative="1" as="geometry">
            <mxPoint x="350" y="310" as="sourcePoint" />
          </mxGeometry>
        </mxCell>
        <mxCell id="OUyavA1izTECv5JwNmtU-110" value="return" style="verticalAlign=bottom;endArrow=open;dashed=1;endSize=8;exitX=1;exitY=0.95;shadow=0;strokeWidth=1;" edge="1" parent="1" source="OUyavA1izTECv5JwNmtU-104" target="OUyavA1izTECv5JwNmtU-106">
          <mxGeometry relative="1" as="geometry">
            <mxPoint x="350" y="367" as="targetPoint" />
          </mxGeometry>
        </mxCell>
        <mxCell id="OUyavA1izTECv5JwNmtU-111" value=":Object" style="shape=umlLifeline;perimeter=lifelinePerimeter;container=1;collapsible=0;recursiveResize=0;rounded=0;shadow=0;strokeWidth=1;" vertex="1" parent="1">
          <mxGeometry x="240" y="200" width="100" height="300" as="geometry" />
        </mxCell>
        <mxCell id="OUyavA1izTECv5JwNmtU-112" value="" style="points=[];perimeter=orthogonalPerimeter;rounded=0;shadow=0;strokeWidth=1;" vertex="1" parent="OUyavA1izTECv5JwNmtU-111">
          <mxGeometry x="45" y="70" width="10" height="190" as="geometry" />
        </mxCell>
        <mxCell id="OUyavA1izTECv5JwNmtU-113" value="dispatch" style="verticalAlign=bottom;startArrow=oval;endArrow=block;startSize=8;shadow=0;strokeWidth=1;" edge="1" parent="OUyavA1izTECv5JwNmtU-111" target="OUyavA1izTECv5JwNmtU-112">
          <mxGeometry relative="1" as="geometry">
            <mxPoint x="-15" y="70" as="sourcePoint" />
          </mxGeometry>
        </mxCell>
        <mxCell id="OUyavA1izTECv5JwNmtU-114" value="" style="points=[];perimeter=orthogonalPerimeter;rounded=0;shadow=0;strokeWidth=1;" vertex="1" parent="OUyavA1izTECv5JwNmtU-111">
          <mxGeometry x="50" y="120" width="10" height="80" as="geometry" />
        </mxCell>
        <mxCell id="OUyavA1izTECv5JwNmtU-115" value=":Object" style="shape=umlLifeline;perimeter=lifelinePerimeter;container=1;collapsible=0;recursiveResize=0;rounded=0;shadow=0;strokeWidth=1;" vertex="1" parent="1">
          <mxGeometry x="420" y="200" width="100" height="300" as="geometry" />
        </mxCell>
        <mxCell id="OUyavA1izTECv5JwNmtU-116" value="" style="points=[];perimeter=orthogonalPerimeter;rounded=0;shadow=0;strokeWidth=1;" vertex="1" parent="OUyavA1izTECv5JwNmtU-115">
          <mxGeometry x="45" y="80" width="10" height="160" as="geometry" />
        </mxCell>
        <mxCell id="OUyavA1izTECv5JwNmtU-117" value="return" style="verticalAlign=bottom;endArrow=open;dashed=1;endSize=8;exitX=0;exitY=0.95;shadow=0;strokeWidth=1;" edge="1" parent="1" source="OUyavA1izTECv5JwNmtU-116" target="OUyavA1izTECv5JwNmtU-112">
          <mxGeometry relative="1" as="geometry">
            <mxPoint x="395" y="356" as="targetPoint" />
          </mxGeometry>
        </mxCell>
        <mxCell id="OUyavA1izTECv5JwNmtU-118" value="dispatch" style="verticalAlign=bottom;endArrow=block;entryX=0;entryY=0;shadow=0;strokeWidth=1;" edge="1" parent="1" source="OUyavA1izTECv5JwNmtU-112" target="OUyavA1izTECv5JwNmtU-116">
          <mxGeometry relative="1" as="geometry">
            <mxPoint x="395" y="280" as="sourcePoint" />
          </mxGeometry>
        </mxCell>
        <mxCell id="OUyavA1izTECv5JwNmtU-119" value="callback" style="verticalAlign=bottom;endArrow=block;entryX=1;entryY=0;shadow=0;strokeWidth=1;" edge="1" parent="1" source="OUyavA1izTECv5JwNmtU-116" target="OUyavA1izTECv5JwNmtU-114">
          <mxGeometry relative="1" as="geometry">
            <mxPoint x="360" y="320" as="sourcePoint" />
          </mxGeometry>
        </mxCell>
        <mxCell id="OUyavA1izTECv5JwNmtU-120" value="return" style="verticalAlign=bottom;endArrow=open;dashed=1;endSize=8;exitX=1;exitY=0.95;shadow=0;strokeWidth=1;" edge="1" parent="1" source="OUyavA1izTECv5JwNmtU-114" target="OUyavA1izTECv5JwNmtU-116">
          <mxGeometry relative="1" as="geometry">
            <mxPoint x="360" y="377" as="targetPoint" />
          </mxGeometry>
        </mxCell>
        <mxCell id="OUyavA1izTECv5JwNmtU-121" value=":Object" style="shape=umlLifeline;perimeter=lifelinePerimeter;container=1;collapsible=0;recursiveResize=0;rounded=0;shadow=0;strokeWidth=1;" vertex="1" parent="1">
          <mxGeometry x="250" y="210" width="100" height="300" as="geometry" />
        </mxCell>
        <mxCell id="OUyavA1izTECv5JwNmtU-122" value="" style="points=[];perimeter=orthogonalPerimeter;rounded=0;shadow=0;strokeWidth=1;" vertex="1" parent="OUyavA1izTECv5JwNmtU-121">
          <mxGeometry x="45" y="70" width="10" height="190" as="geometry" />
        </mxCell>
        <mxCell id="OUyavA1izTECv5JwNmtU-123" value="dispatch" style="verticalAlign=bottom;startArrow=oval;endArrow=block;startSize=8;shadow=0;strokeWidth=1;" edge="1" parent="OUyavA1izTECv5JwNmtU-121" target="OUyavA1izTECv5JwNmtU-122">
          <mxGeometry relative="1" as="geometry">
            <mxPoint x="-15" y="70" as="sourcePoint" />
          </mxGeometry>
        </mxCell>
        <mxCell id="OUyavA1izTECv5JwNmtU-124" value="" style="points=[];perimeter=orthogonalPerimeter;rounded=0;shadow=0;strokeWidth=1;" vertex="1" parent="OUyavA1izTECv5JwNmtU-121">
          <mxGeometry x="50" y="120" width="10" height="80" as="geometry" />
        </mxCell>
        <mxCell id="OUyavA1izTECv5JwNmtU-125" value=":Object" style="shape=umlLifeline;perimeter=lifelinePerimeter;container=1;collapsible=0;recursiveResize=0;rounded=0;shadow=0;strokeWidth=1;" vertex="1" parent="1">
          <mxGeometry x="430" y="210" width="100" height="300" as="geometry" />
        </mxCell>
        <mxCell id="OUyavA1izTECv5JwNmtU-126" value="" style="points=[];perimeter=orthogonalPerimeter;rounded=0;shadow=0;strokeWidth=1;" vertex="1" parent="OUyavA1izTECv5JwNmtU-125">
          <mxGeometry x="45" y="80" width="10" height="160" as="geometry" />
        </mxCell>
        <mxCell id="OUyavA1izTECv5JwNmtU-127" value="return" style="verticalAlign=bottom;endArrow=open;dashed=1;endSize=8;exitX=0;exitY=0.95;shadow=0;strokeWidth=1;" edge="1" parent="1" source="OUyavA1izTECv5JwNmtU-126" target="OUyavA1izTECv5JwNmtU-122">
          <mxGeometry relative="1" as="geometry">
            <mxPoint x="405" y="366" as="targetPoint" />
          </mxGeometry>
        </mxCell>
        <mxCell id="OUyavA1izTECv5JwNmtU-128" value="dispatch" style="verticalAlign=bottom;endArrow=block;entryX=0;entryY=0;shadow=0;strokeWidth=1;" edge="1" parent="1" source="OUyavA1izTECv5JwNmtU-122" target="OUyavA1izTECv5JwNmtU-126">
          <mxGeometry relative="1" as="geometry">
            <mxPoint x="405" y="290" as="sourcePoint" />
          </mxGeometry>
        </mxCell>
        <mxCell id="OUyavA1izTECv5JwNmtU-129" value="callback" style="verticalAlign=bottom;endArrow=block;entryX=1;entryY=0;shadow=0;strokeWidth=1;" edge="1" parent="1" source="OUyavA1izTECv5JwNmtU-126" target="OUyavA1izTECv5JwNmtU-124">
          <mxGeometry relative="1" as="geometry">
            <mxPoint x="370" y="330" as="sourcePoint" />
          </mxGeometry>
        </mxCell>
        <mxCell id="OUyavA1izTECv5JwNmtU-130" value="return" style="verticalAlign=bottom;endArrow=open;dashed=1;endSize=8;exitX=1;exitY=0.95;shadow=0;strokeWidth=1;" edge="1" parent="1" source="OUyavA1izTECv5JwNmtU-124" target="OUyavA1izTECv5JwNmtU-126">
          <mxGeometry relative="1" as="geometry">
            <mxPoint x="370" y="387" as="targetPoint" />
          </mxGeometry>
        </mxCell>
        <mxCell id="OUyavA1izTECv5JwNmtU-131" value=":Object" style="shape=umlLifeline;perimeter=lifelinePerimeter;container=1;collapsible=0;recursiveResize=0;rounded=0;shadow=0;strokeWidth=1;" vertex="1" parent="1">
          <mxGeometry x="260" y="220" width="100" height="300" as="geometry" />
        </mxCell>
        <mxCell id="OUyavA1izTECv5JwNmtU-132" value="" style="points=[];perimeter=orthogonalPerimeter;rounded=0;shadow=0;strokeWidth=1;" vertex="1" parent="OUyavA1izTECv5JwNmtU-131">
          <mxGeometry x="45" y="70" width="10" height="190" as="geometry" />
        </mxCell>
        <mxCell id="OUyavA1izTECv5JwNmtU-133" value="dispatch" style="verticalAlign=bottom;startArrow=oval;endArrow=block;startSize=8;shadow=0;strokeWidth=1;" edge="1" parent="OUyavA1izTECv5JwNmtU-131" target="OUyavA1izTECv5JwNmtU-132">
          <mxGeometry relative="1" as="geometry">
            <mxPoint x="-15" y="70" as="sourcePoint" />
          </mxGeometry>
        </mxCell>
        <mxCell id="OUyavA1izTECv5JwNmtU-134" value="" style="points=[];perimeter=orthogonalPerimeter;rounded=0;shadow=0;strokeWidth=1;" vertex="1" parent="OUyavA1izTECv5JwNmtU-131">
          <mxGeometry x="50" y="120" width="10" height="80" as="geometry" />
        </mxCell>
        <mxCell id="OUyavA1izTECv5JwNmtU-135" value=":Object" style="shape=umlLifeline;perimeter=lifelinePerimeter;container=1;collapsible=0;recursiveResize=0;rounded=0;shadow=0;strokeWidth=1;" vertex="1" parent="1">
          <mxGeometry x="440" y="220" width="100" height="300" as="geometry" />
        </mxCell>
        <mxCell id="OUyavA1izTECv5JwNmtU-136" value="" style="points=[];perimeter=orthogonalPerimeter;rounded=0;shadow=0;strokeWidth=1;" vertex="1" parent="OUyavA1izTECv5JwNmtU-135">
          <mxGeometry x="45" y="80" width="10" height="160" as="geometry" />
        </mxCell>
        <mxCell id="OUyavA1izTECv5JwNmtU-137" value="return" style="verticalAlign=bottom;endArrow=open;dashed=1;endSize=8;exitX=0;exitY=0.95;shadow=0;strokeWidth=1;" edge="1" parent="1" source="OUyavA1izTECv5JwNmtU-136" target="OUyavA1izTECv5JwNmtU-132">
          <mxGeometry relative="1" as="geometry">
            <mxPoint x="415" y="376" as="targetPoint" />
          </mxGeometry>
        </mxCell>
        <mxCell id="OUyavA1izTECv5JwNmtU-138" value="dispatch" style="verticalAlign=bottom;endArrow=block;entryX=0;entryY=0;shadow=0;strokeWidth=1;" edge="1" parent="1" source="OUyavA1izTECv5JwNmtU-132" target="OUyavA1izTECv5JwNmtU-136">
          <mxGeometry relative="1" as="geometry">
            <mxPoint x="415" y="300" as="sourcePoint" />
          </mxGeometry>
        </mxCell>
        <mxCell id="OUyavA1izTECv5JwNmtU-139" value="callback" style="verticalAlign=bottom;endArrow=block;entryX=1;entryY=0;shadow=0;strokeWidth=1;" edge="1" parent="1" source="OUyavA1izTECv5JwNmtU-136" target="OUyavA1izTECv5JwNmtU-134">
          <mxGeometry relative="1" as="geometry">
            <mxPoint x="380" y="340" as="sourcePoint" />
          </mxGeometry>
        </mxCell>
        <mxCell id="OUyavA1izTECv5JwNmtU-140" value="return" style="verticalAlign=bottom;endArrow=open;dashed=1;endSize=8;exitX=1;exitY=0.95;shadow=0;strokeWidth=1;" edge="1" parent="1" source="OUyavA1izTECv5JwNmtU-134" target="OUyavA1izTECv5JwNmtU-136">
          <mxGeometry relative="1" as="geometry">
            <mxPoint x="380" y="397" as="targetPoint" />
          </mxGeometry>
        </mxCell>
        <mxCell id="OUyavA1izTECv5JwNmtU-141" value=":Object" style="shape=umlLifeline;perimeter=lifelinePerimeter;container=1;collapsible=0;recursiveResize=0;rounded=0;shadow=0;strokeWidth=1;" vertex="1" parent="1">
          <mxGeometry x="270" y="230" width="100" height="300" as="geometry" />
        </mxCell>
        <mxCell id="OUyavA1izTECv5JwNmtU-142" value="" style="points=[];perimeter=orthogonalPerimeter;rounded=0;shadow=0;strokeWidth=1;" vertex="1" parent="OUyavA1izTECv5JwNmtU-141">
          <mxGeometry x="45" y="70" width="10" height="190" as="geometry" />
        </mxCell>
        <mxCell id="OUyavA1izTECv5JwNmtU-143" value="dispatch" style="verticalAlign=bottom;startArrow=oval;endArrow=block;startSize=8;shadow=0;strokeWidth=1;" edge="1" parent="OUyavA1izTECv5JwNmtU-141" target="OUyavA1izTECv5JwNmtU-142">
          <mxGeometry relative="1" as="geometry">
            <mxPoint x="-15" y="70" as="sourcePoint" />
          </mxGeometry>
        </mxCell>
        <mxCell id="OUyavA1izTECv5JwNmtU-144" value="" style="points=[];perimeter=orthogonalPerimeter;rounded=0;shadow=0;strokeWidth=1;" vertex="1" parent="OUyavA1izTECv5JwNmtU-141">
          <mxGeometry x="50" y="120" width="10" height="80" as="geometry" />
        </mxCell>
        <mxCell id="OUyavA1izTECv5JwNmtU-145" value=":Object" style="shape=umlLifeline;perimeter=lifelinePerimeter;container=1;collapsible=0;recursiveResize=0;rounded=0;shadow=0;strokeWidth=1;" vertex="1" parent="1">
          <mxGeometry x="450" y="230" width="100" height="300" as="geometry" />
        </mxCell>
        <mxCell id="OUyavA1izTECv5JwNmtU-146" value="" style="points=[];perimeter=orthogonalPerimeter;rounded=0;shadow=0;strokeWidth=1;" vertex="1" parent="OUyavA1izTECv5JwNmtU-145">
          <mxGeometry x="45" y="80" width="10" height="160" as="geometry" />
        </mxCell>
        <mxCell id="OUyavA1izTECv5JwNmtU-147" value="return" style="verticalAlign=bottom;endArrow=open;dashed=1;endSize=8;exitX=0;exitY=0.95;shadow=0;strokeWidth=1;" edge="1" parent="1" source="OUyavA1izTECv5JwNmtU-146" target="OUyavA1izTECv5JwNmtU-142">
          <mxGeometry relative="1" as="geometry">
            <mxPoint x="425" y="386" as="targetPoint" />
          </mxGeometry>
        </mxCell>
        <mxCell id="OUyavA1izTECv5JwNmtU-148" value="dispatch" style="verticalAlign=bottom;endArrow=block;entryX=0;entryY=0;shadow=0;strokeWidth=1;" edge="1" parent="1" source="OUyavA1izTECv5JwNmtU-142" target="OUyavA1izTECv5JwNmtU-146">
          <mxGeometry relative="1" as="geometry">
            <mxPoint x="425" y="310" as="sourcePoint" />
          </mxGeometry>
        </mxCell>
        <mxCell id="OUyavA1izTECv5JwNmtU-149" value="callback" style="verticalAlign=bottom;endArrow=block;entryX=1;entryY=0;shadow=0;strokeWidth=1;" edge="1" parent="1" source="OUyavA1izTECv5JwNmtU-146" target="OUyavA1izTECv5JwNmtU-144">
          <mxGeometry relative="1" as="geometry">
            <mxPoint x="390" y="350" as="sourcePoint" />
          </mxGeometry>
        </mxCell>
        <mxCell id="OUyavA1izTECv5JwNmtU-150" value="return" style="verticalAlign=bottom;endArrow=open;dashed=1;endSize=8;exitX=1;exitY=0.95;shadow=0;strokeWidth=1;" edge="1" parent="1" source="OUyavA1izTECv5JwNmtU-144" target="OUyavA1izTECv5JwNmtU-146">
          <mxGeometry relative="1" as="geometry">
            <mxPoint x="390" y="407" as="targetPoint" />
          </mxGeometry>
        </mxCell>
        <mxCell id="OUyavA1izTECv5JwNmtU-151" value=":Object" style="shape=umlLifeline;perimeter=lifelinePerimeter;container=1;collapsible=0;recursiveResize=0;rounded=0;shadow=0;strokeWidth=1;" vertex="1" parent="1">
          <mxGeometry x="280" y="240" width="100" height="300" as="geometry" />
        </mxCell>
        <mxCell id="OUyavA1izTECv5JwNmtU-152" value="" style="points=[];perimeter=orthogonalPerimeter;rounded=0;shadow=0;strokeWidth=1;" vertex="1" parent="OUyavA1izTECv5JwNmtU-151">
          <mxGeometry x="45" y="70" width="10" height="190" as="geometry" />
        </mxCell>
        <mxCell id="OUyavA1izTECv5JwNmtU-153" value="dispatch" style="verticalAlign=bottom;startArrow=oval;endArrow=block;startSize=8;shadow=0;strokeWidth=1;" edge="1" parent="OUyavA1izTECv5JwNmtU-151" target="OUyavA1izTECv5JwNmtU-152">
          <mxGeometry relative="1" as="geometry">
            <mxPoint x="-15" y="70" as="sourcePoint" />
          </mxGeometry>
        </mxCell>
        <mxCell id="OUyavA1izTECv5JwNmtU-154" value="" style="points=[];perimeter=orthogonalPerimeter;rounded=0;shadow=0;strokeWidth=1;" vertex="1" parent="OUyavA1izTECv5JwNmtU-151">
          <mxGeometry x="50" y="120" width="10" height="80" as="geometry" />
        </mxCell>
        <mxCell id="OUyavA1izTECv5JwNmtU-155" value=":Object" style="shape=umlLifeline;perimeter=lifelinePerimeter;container=1;collapsible=0;recursiveResize=0;rounded=0;shadow=0;strokeWidth=1;" vertex="1" parent="1">
          <mxGeometry x="460" y="240" width="100" height="300" as="geometry" />
        </mxCell>
        <mxCell id="OUyavA1izTECv5JwNmtU-156" value="" style="points=[];perimeter=orthogonalPerimeter;rounded=0;shadow=0;strokeWidth=1;" vertex="1" parent="OUyavA1izTECv5JwNmtU-155">
          <mxGeometry x="45" y="80" width="10" height="160" as="geometry" />
        </mxCell>
        <mxCell id="OUyavA1izTECv5JwNmtU-157" value="return" style="verticalAlign=bottom;endArrow=open;dashed=1;endSize=8;exitX=0;exitY=0.95;shadow=0;strokeWidth=1;" edge="1" parent="1" source="OUyavA1izTECv5JwNmtU-156" target="OUyavA1izTECv5JwNmtU-152">
          <mxGeometry relative="1" as="geometry">
            <mxPoint x="435" y="396" as="targetPoint" />
          </mxGeometry>
        </mxCell>
        <mxCell id="OUyavA1izTECv5JwNmtU-158" value="dispatch" style="verticalAlign=bottom;endArrow=block;entryX=0;entryY=0;shadow=0;strokeWidth=1;" edge="1" parent="1" source="OUyavA1izTECv5JwNmtU-152" target="OUyavA1izTECv5JwNmtU-156">
          <mxGeometry relative="1" as="geometry">
            <mxPoint x="435" y="320" as="sourcePoint" />
          </mxGeometry>
        </mxCell>
        <mxCell id="OUyavA1izTECv5JwNmtU-159" value="callback" style="verticalAlign=bottom;endArrow=block;entryX=1;entryY=0;shadow=0;strokeWidth=1;" edge="1" parent="1" source="OUyavA1izTECv5JwNmtU-156" target="OUyavA1izTECv5JwNmtU-154">
          <mxGeometry relative="1" as="geometry">
            <mxPoint x="400" y="360" as="sourcePoint" />
          </mxGeometry>
        </mxCell>
        <mxCell id="OUyavA1izTECv5JwNmtU-160" value="return" style="verticalAlign=bottom;endArrow=open;dashed=1;endSize=8;exitX=1;exitY=0.95;shadow=0;strokeWidth=1;" edge="1" parent="1" source="OUyavA1izTECv5JwNmtU-154" target="OUyavA1izTECv5JwNmtU-156">
          <mxGeometry relative="1" as="geometry">
            <mxPoint x="400" y="417" as="targetPoint" />
          </mxGeometry>
        </mxCell>
        <mxCell id="OUyavA1izTECv5JwNmtU-161" value=":Object" style="shape=umlLifeline;perimeter=lifelinePerimeter;container=1;collapsible=0;recursiveResize=0;rounded=0;shadow=0;strokeWidth=1;" vertex="1" parent="1">
          <mxGeometry x="290" y="250" width="100" height="300" as="geometry" />
        </mxCell>
        <mxCell id="OUyavA1izTECv5JwNmtU-162" value="" style="points=[];perimeter=orthogonalPerimeter;rounded=0;shadow=0;strokeWidth=1;" vertex="1" parent="OUyavA1izTECv5JwNmtU-161">
          <mxGeometry x="45" y="70" width="10" height="190" as="geometry" />
        </mxCell>
        <mxCell id="OUyavA1izTECv5JwNmtU-163" value="dispatch" style="verticalAlign=bottom;startArrow=oval;endArrow=block;startSize=8;shadow=0;strokeWidth=1;" edge="1" parent="OUyavA1izTECv5JwNmtU-161" target="OUyavA1izTECv5JwNmtU-162">
          <mxGeometry relative="1" as="geometry">
            <mxPoint x="-15" y="70" as="sourcePoint" />
          </mxGeometry>
        </mxCell>
        <mxCell id="OUyavA1izTECv5JwNmtU-164" value="" style="points=[];perimeter=orthogonalPerimeter;rounded=0;shadow=0;strokeWidth=1;" vertex="1" parent="OUyavA1izTECv5JwNmtU-161">
          <mxGeometry x="50" y="120" width="10" height="80" as="geometry" />
        </mxCell>
        <mxCell id="OUyavA1izTECv5JwNmtU-165" value=":Object" style="shape=umlLifeline;perimeter=lifelinePerimeter;container=1;collapsible=0;recursiveResize=0;rounded=0;shadow=0;strokeWidth=1;" vertex="1" parent="1">
          <mxGeometry x="470" y="250" width="100" height="300" as="geometry" />
        </mxCell>
        <mxCell id="OUyavA1izTECv5JwNmtU-166" value="" style="points=[];perimeter=orthogonalPerimeter;rounded=0;shadow=0;strokeWidth=1;" vertex="1" parent="OUyavA1izTECv5JwNmtU-165">
          <mxGeometry x="45" y="80" width="10" height="160" as="geometry" />
        </mxCell>
        <mxCell id="OUyavA1izTECv5JwNmtU-167" value="return" style="verticalAlign=bottom;endArrow=open;dashed=1;endSize=8;exitX=0;exitY=0.95;shadow=0;strokeWidth=1;" edge="1" parent="1" source="OUyavA1izTECv5JwNmtU-166" target="OUyavA1izTECv5JwNmtU-162">
          <mxGeometry relative="1" as="geometry">
            <mxPoint x="445" y="406" as="targetPoint" />
          </mxGeometry>
        </mxCell>
        <mxCell id="OUyavA1izTECv5JwNmtU-168" value="dispatch" style="verticalAlign=bottom;endArrow=block;entryX=0;entryY=0;shadow=0;strokeWidth=1;" edge="1" parent="1" source="OUyavA1izTECv5JwNmtU-162" target="OUyavA1izTECv5JwNmtU-166">
          <mxGeometry relative="1" as="geometry">
            <mxPoint x="445" y="330" as="sourcePoint" />
          </mxGeometry>
        </mxCell>
        <mxCell id="OUyavA1izTECv5JwNmtU-169" value="callback" style="verticalAlign=bottom;endArrow=block;entryX=1;entryY=0;shadow=0;strokeWidth=1;" edge="1" parent="1" source="OUyavA1izTECv5JwNmtU-166" target="OUyavA1izTECv5JwNmtU-164">
          <mxGeometry relative="1" as="geometry">
            <mxPoint x="410" y="370" as="sourcePoint" />
          </mxGeometry>
        </mxCell>
        <mxCell id="OUyavA1izTECv5JwNmtU-170" value="return" style="verticalAlign=bottom;endArrow=open;dashed=1;endSize=8;exitX=1;exitY=0.95;shadow=0;strokeWidth=1;" edge="1" parent="1" source="OUyavA1izTECv5JwNmtU-164" target="OUyavA1izTECv5JwNmtU-166">
          <mxGeometry relative="1" as="geometry">
            <mxPoint x="410" y="427" as="targetPoint" />
          </mxGeometry>
        </mxCell>
        <mxCell id="OUyavA1izTECv5JwNmtU-171" value=":Object" style="shape=umlLifeline;perimeter=lifelinePerimeter;container=1;collapsible=0;recursiveResize=0;rounded=0;shadow=0;strokeWidth=1;" vertex="1" parent="1">
          <mxGeometry x="300" y="260" width="100" height="300" as="geometry" />
        </mxCell>
        <mxCell id="OUyavA1izTECv5JwNmtU-172" value="" style="points=[];perimeter=orthogonalPerimeter;rounded=0;shadow=0;strokeWidth=1;" vertex="1" parent="OUyavA1izTECv5JwNmtU-171">
          <mxGeometry x="45" y="70" width="10" height="190" as="geometry" />
        </mxCell>
        <mxCell id="OUyavA1izTECv5JwNmtU-173" value="dispatch" style="verticalAlign=bottom;startArrow=oval;endArrow=block;startSize=8;shadow=0;strokeWidth=1;" edge="1" parent="OUyavA1izTECv5JwNmtU-171" target="OUyavA1izTECv5JwNmtU-172">
          <mxGeometry relative="1" as="geometry">
            <mxPoint x="-15" y="70" as="sourcePoint" />
          </mxGeometry>
        </mxCell>
        <mxCell id="OUyavA1izTECv5JwNmtU-174" value="" style="points=[];perimeter=orthogonalPerimeter;rounded=0;shadow=0;strokeWidth=1;" vertex="1" parent="OUyavA1izTECv5JwNmtU-171">
          <mxGeometry x="50" y="120" width="10" height="80" as="geometry" />
        </mxCell>
        <mxCell id="OUyavA1izTECv5JwNmtU-175" value=":Object" style="shape=umlLifeline;perimeter=lifelinePerimeter;container=1;collapsible=0;recursiveResize=0;rounded=0;shadow=0;strokeWidth=1;" vertex="1" parent="1">
          <mxGeometry x="480" y="260" width="100" height="300" as="geometry" />
        </mxCell>
        <mxCell id="OUyavA1izTECv5JwNmtU-176" value="" style="points=[];perimeter=orthogonalPerimeter;rounded=0;shadow=0;strokeWidth=1;" vertex="1" parent="OUyavA1izTECv5JwNmtU-175">
          <mxGeometry x="45" y="80" width="10" height="160" as="geometry" />
        </mxCell>
        <mxCell id="OUyavA1izTECv5JwNmtU-177" value="return" style="verticalAlign=bottom;endArrow=open;dashed=1;endSize=8;exitX=0;exitY=0.95;shadow=0;strokeWidth=1;" edge="1" parent="1" source="OUyavA1izTECv5JwNmtU-176" target="OUyavA1izTECv5JwNmtU-172">
          <mxGeometry relative="1" as="geometry">
            <mxPoint x="455" y="416" as="targetPoint" />
          </mxGeometry>
        </mxCell>
        <mxCell id="OUyavA1izTECv5JwNmtU-178" value="dispatch" style="verticalAlign=bottom;endArrow=block;entryX=0;entryY=0;shadow=0;strokeWidth=1;" edge="1" parent="1" source="OUyavA1izTECv5JwNmtU-172" target="OUyavA1izTECv5JwNmtU-176">
          <mxGeometry relative="1" as="geometry">
            <mxPoint x="455" y="340" as="sourcePoint" />
          </mxGeometry>
        </mxCell>
        <mxCell id="OUyavA1izTECv5JwNmtU-179" value="callback" style="verticalAlign=bottom;endArrow=block;entryX=1;entryY=0;shadow=0;strokeWidth=1;" edge="1" parent="1" source="OUyavA1izTECv5JwNmtU-176" target="OUyavA1izTECv5JwNmtU-174">
          <mxGeometry relative="1" as="geometry">
            <mxPoint x="420" y="380" as="sourcePoint" />
          </mxGeometry>
        </mxCell>
        <mxCell id="OUyavA1izTECv5JwNmtU-180" value="return" style="verticalAlign=bottom;endArrow=open;dashed=1;endSize=8;exitX=1;exitY=0.95;shadow=0;strokeWidth=1;" edge="1" parent="1" source="OUyavA1izTECv5JwNmtU-174" target="OUyavA1izTECv5JwNmtU-176">
          <mxGeometry relative="1" as="geometry">
            <mxPoint x="420" y="437" as="targetPoint" />
          </mxGeometry>
        </mxCell>
        <mxCell id="OUyavA1izTECv5JwNmtU-181" value=":Object" style="shape=umlLifeline;perimeter=lifelinePerimeter;container=1;collapsible=0;recursiveResize=0;rounded=0;shadow=0;strokeWidth=1;" vertex="1" parent="1">
          <mxGeometry x="310" y="270" width="100" height="300" as="geometry" />
        </mxCell>
        <mxCell id="OUyavA1izTECv5JwNmtU-182" value="" style="points=[];perimeter=orthogonalPerimeter;rounded=0;shadow=0;strokeWidth=1;" vertex="1" parent="OUyavA1izTECv5JwNmtU-181">
          <mxGeometry x="45" y="70" width="10" height="190" as="geometry" />
        </mxCell>
        <mxCell id="OUyavA1izTECv5JwNmtU-183" value="dispatch" style="verticalAlign=bottom;startArrow=oval;endArrow=block;startSize=8;shadow=0;strokeWidth=1;" edge="1" parent="OUyavA1izTECv5JwNmtU-181" target="OUyavA1izTECv5JwNmtU-182">
          <mxGeometry relative="1" as="geometry">
            <mxPoint x="-15" y="70" as="sourcePoint" />
          </mxGeometry>
        </mxCell>
        <mxCell id="OUyavA1izTECv5JwNmtU-184" value="" style="points=[];perimeter=orthogonalPerimeter;rounded=0;shadow=0;strokeWidth=1;" vertex="1" parent="OUyavA1izTECv5JwNmtU-181">
          <mxGeometry x="50" y="120" width="10" height="80" as="geometry" />
        </mxCell>
        <mxCell id="OUyavA1izTECv5JwNmtU-185" value=":Object" style="shape=umlLifeline;perimeter=lifelinePerimeter;container=1;collapsible=0;recursiveResize=0;rounded=0;shadow=0;strokeWidth=1;" vertex="1" parent="1">
          <mxGeometry x="490" y="270" width="100" height="300" as="geometry" />
        </mxCell>
        <mxCell id="OUyavA1izTECv5JwNmtU-186" value="" style="points=[];perimeter=orthogonalPerimeter;rounded=0;shadow=0;strokeWidth=1;" vertex="1" parent="OUyavA1izTECv5JwNmtU-185">
          <mxGeometry x="45" y="80" width="10" height="160" as="geometry" />
        </mxCell>
        <mxCell id="OUyavA1izTECv5JwNmtU-187" value="return" style="verticalAlign=bottom;endArrow=open;dashed=1;endSize=8;exitX=0;exitY=0.95;shadow=0;strokeWidth=1;" edge="1" parent="1" source="OUyavA1izTECv5JwNmtU-186" target="OUyavA1izTECv5JwNmtU-182">
          <mxGeometry relative="1" as="geometry">
            <mxPoint x="465" y="426" as="targetPoint" />
          </mxGeometry>
        </mxCell>
        <mxCell id="OUyavA1izTECv5JwNmtU-188" value="dispatch" style="verticalAlign=bottom;endArrow=block;entryX=0;entryY=0;shadow=0;strokeWidth=1;" edge="1" parent="1" source="OUyavA1izTECv5JwNmtU-182" target="OUyavA1izTECv5JwNmtU-186">
          <mxGeometry relative="1" as="geometry">
            <mxPoint x="465" y="350" as="sourcePoint" />
          </mxGeometry>
        </mxCell>
        <mxCell id="OUyavA1izTECv5JwNmtU-189" value="callback" style="verticalAlign=bottom;endArrow=block;entryX=1;entryY=0;shadow=0;strokeWidth=1;" edge="1" parent="1" source="OUyavA1izTECv5JwNmtU-186" target="OUyavA1izTECv5JwNmtU-184">
          <mxGeometry relative="1" as="geometry">
            <mxPoint x="430" y="390" as="sourcePoint" />
          </mxGeometry>
        </mxCell>
        <mxCell id="OUyavA1izTECv5JwNmtU-190" value="return" style="verticalAlign=bottom;endArrow=open;dashed=1;endSize=8;exitX=1;exitY=0.95;shadow=0;strokeWidth=1;" edge="1" parent="1" source="OUyavA1izTECv5JwNmtU-184" target="OUyavA1izTECv5JwNmtU-186">
          <mxGeometry relative="1" as="geometry">
            <mxPoint x="430" y="447" as="targetPoint" />
          </mxGeometry>
        </mxCell>
        <mxCell id="OUyavA1izTECv5JwNmtU-191" value=":Object" style="shape=umlLifeline;perimeter=lifelinePerimeter;container=1;collapsible=0;recursiveResize=0;rounded=0;shadow=0;strokeWidth=1;" vertex="1" parent="1">
          <mxGeometry x="320" y="280" width="100" height="300" as="geometry" />
        </mxCell>
        <mxCell id="OUyavA1izTECv5JwNmtU-192" value="" style="points=[];perimeter=orthogonalPerimeter;rounded=0;shadow=0;strokeWidth=1;" vertex="1" parent="OUyavA1izTECv5JwNmtU-191">
          <mxGeometry x="45" y="70" width="10" height="190" as="geometry" />
        </mxCell>
        <mxCell id="OUyavA1izTECv5JwNmtU-193" value="dispatch" style="verticalAlign=bottom;startArrow=oval;endArrow=block;startSize=8;shadow=0;strokeWidth=1;" edge="1" parent="OUyavA1izTECv5JwNmtU-191" target="OUyavA1izTECv5JwNmtU-192">
          <mxGeometry relative="1" as="geometry">
            <mxPoint x="-15" y="70" as="sourcePoint" />
          </mxGeometry>
        </mxCell>
        <mxCell id="OUyavA1izTECv5JwNmtU-194" value="" style="points=[];perimeter=orthogonalPerimeter;rounded=0;shadow=0;strokeWidth=1;" vertex="1" parent="OUyavA1izTECv5JwNmtU-191">
          <mxGeometry x="50" y="120" width="10" height="80" as="geometry" />
        </mxCell>
        <mxCell id="OUyavA1izTECv5JwNmtU-195" value=":Object" style="shape=umlLifeline;perimeter=lifelinePerimeter;container=1;collapsible=0;recursiveResize=0;rounded=0;shadow=0;strokeWidth=1;" vertex="1" parent="1">
          <mxGeometry x="500" y="280" width="100" height="300" as="geometry" />
        </mxCell>
        <mxCell id="OUyavA1izTECv5JwNmtU-196" value="" style="points=[];perimeter=orthogonalPerimeter;rounded=0;shadow=0;strokeWidth=1;" vertex="1" parent="OUyavA1izTECv5JwNmtU-195">
          <mxGeometry x="45" y="80" width="10" height="160" as="geometry" />
        </mxCell>
        <mxCell id="OUyavA1izTECv5JwNmtU-197" value="return" style="verticalAlign=bottom;endArrow=open;dashed=1;endSize=8;exitX=0;exitY=0.95;shadow=0;strokeWidth=1;" edge="1" parent="1" source="OUyavA1izTECv5JwNmtU-196" target="OUyavA1izTECv5JwNmtU-192">
          <mxGeometry relative="1" as="geometry">
            <mxPoint x="475" y="436" as="targetPoint" />
          </mxGeometry>
        </mxCell>
        <mxCell id="OUyavA1izTECv5JwNmtU-198" value="dispatch" style="verticalAlign=bottom;endArrow=block;entryX=0;entryY=0;shadow=0;strokeWidth=1;" edge="1" parent="1" source="OUyavA1izTECv5JwNmtU-192" target="OUyavA1izTECv5JwNmtU-196">
          <mxGeometry relative="1" as="geometry">
            <mxPoint x="475" y="360" as="sourcePoint" />
          </mxGeometry>
        </mxCell>
        <mxCell id="OUyavA1izTECv5JwNmtU-199" value="callback" style="verticalAlign=bottom;endArrow=block;entryX=1;entryY=0;shadow=0;strokeWidth=1;" edge="1" parent="1" source="OUyavA1izTECv5JwNmtU-196" target="OUyavA1izTECv5JwNmtU-194">
          <mxGeometry relative="1" as="geometry">
            <mxPoint x="440" y="400" as="sourcePoint" />
          </mxGeometry>
        </mxCell>
        <mxCell id="OUyavA1izTECv5JwNmtU-200" value="return" style="verticalAlign=bottom;endArrow=open;dashed=1;endSize=8;exitX=1;exitY=0.95;shadow=0;strokeWidth=1;" edge="1" parent="1" source="OUyavA1izTECv5JwNmtU-194" target="OUyavA1izTECv5JwNmtU-196">
          <mxGeometry relative="1" as="geometry">
            <mxPoint x="440" y="457" as="targetPoint" />
          </mxGeometry>
        </mxCell>
        <mxCell id="OUyavA1izTECv5JwNmtU-201" value=":Object" style="shape=umlLifeline;perimeter=lifelinePerimeter;container=1;collapsible=0;recursiveResize=0;rounded=0;shadow=0;strokeWidth=1;" vertex="1" parent="1">
          <mxGeometry x="330" y="290" width="100" height="300" as="geometry" />
        </mxCell>
        <mxCell id="OUyavA1izTECv5JwNmtU-202" value="" style="points=[];perimeter=orthogonalPerimeter;rounded=0;shadow=0;strokeWidth=1;" vertex="1" parent="OUyavA1izTECv5JwNmtU-201">
          <mxGeometry x="45" y="70" width="10" height="190" as="geometry" />
        </mxCell>
        <mxCell id="OUyavA1izTECv5JwNmtU-203" value="dispatch" style="verticalAlign=bottom;startArrow=oval;endArrow=block;startSize=8;shadow=0;strokeWidth=1;" edge="1" parent="OUyavA1izTECv5JwNmtU-201" target="OUyavA1izTECv5JwNmtU-202">
          <mxGeometry relative="1" as="geometry">
            <mxPoint x="-15" y="70" as="sourcePoint" />
          </mxGeometry>
        </mxCell>
        <mxCell id="OUyavA1izTECv5JwNmtU-204" value="" style="points=[];perimeter=orthogonalPerimeter;rounded=0;shadow=0;strokeWidth=1;" vertex="1" parent="OUyavA1izTECv5JwNmtU-201">
          <mxGeometry x="50" y="120" width="10" height="80" as="geometry" />
        </mxCell>
        <mxCell id="OUyavA1izTECv5JwNmtU-205" value=":Object" style="shape=umlLifeline;perimeter=lifelinePerimeter;container=1;collapsible=0;recursiveResize=0;rounded=0;shadow=0;strokeWidth=1;" vertex="1" parent="1">
          <mxGeometry x="510" y="290" width="100" height="300" as="geometry" />
        </mxCell>
        <mxCell id="OUyavA1izTECv5JwNmtU-206" value="" style="points=[];perimeter=orthogonalPerimeter;rounded=0;shadow=0;strokeWidth=1;" vertex="1" parent="OUyavA1izTECv5JwNmtU-205">
          <mxGeometry x="45" y="80" width="10" height="160" as="geometry" />
        </mxCell>
        <mxCell id="OUyavA1izTECv5JwNmtU-207" value="return" style="verticalAlign=bottom;endArrow=open;dashed=1;endSize=8;exitX=0;exitY=0.95;shadow=0;strokeWidth=1;" edge="1" parent="1" source="OUyavA1izTECv5JwNmtU-206" target="OUyavA1izTECv5JwNmtU-202">
          <mxGeometry relative="1" as="geometry">
            <mxPoint x="485" y="446" as="targetPoint" />
          </mxGeometry>
        </mxCell>
        <mxCell id="OUyavA1izTECv5JwNmtU-208" value="dispatch" style="verticalAlign=bottom;endArrow=block;entryX=0;entryY=0;shadow=0;strokeWidth=1;" edge="1" parent="1" source="OUyavA1izTECv5JwNmtU-202" target="OUyavA1izTECv5JwNmtU-206">
          <mxGeometry relative="1" as="geometry">
            <mxPoint x="485" y="370" as="sourcePoint" />
          </mxGeometry>
        </mxCell>
        <mxCell id="OUyavA1izTECv5JwNmtU-209" value="callback" style="verticalAlign=bottom;endArrow=block;entryX=1;entryY=0;shadow=0;strokeWidth=1;" edge="1" parent="1" source="OUyavA1izTECv5JwNmtU-206" target="OUyavA1izTECv5JwNmtU-204">
          <mxGeometry relative="1" as="geometry">
            <mxPoint x="450" y="410" as="sourcePoint" />
          </mxGeometry>
        </mxCell>
        <mxCell id="OUyavA1izTECv5JwNmtU-210" value="return" style="verticalAlign=bottom;endArrow=open;dashed=1;endSize=8;exitX=1;exitY=0.95;shadow=0;strokeWidth=1;" edge="1" parent="1" source="OUyavA1izTECv5JwNmtU-204" target="OUyavA1izTECv5JwNmtU-206">
          <mxGeometry relative="1" as="geometry">
            <mxPoint x="450" y="467" as="targetPoint" />
          </mxGeometry>
        </mxCell>
        <mxCell id="OUyavA1izTECv5JwNmtU-211" value=":Object" style="shape=umlLifeline;perimeter=lifelinePerimeter;container=1;collapsible=0;recursiveResize=0;rounded=0;shadow=0;strokeWidth=1;" vertex="1" parent="1">
          <mxGeometry x="340" y="300" width="100" height="300" as="geometry" />
        </mxCell>
        <mxCell id="OUyavA1izTECv5JwNmtU-212" value="" style="points=[];perimeter=orthogonalPerimeter;rounded=0;shadow=0;strokeWidth=1;" vertex="1" parent="OUyavA1izTECv5JwNmtU-211">
          <mxGeometry x="45" y="70" width="10" height="190" as="geometry" />
        </mxCell>
        <mxCell id="OUyavA1izTECv5JwNmtU-213" value="dispatch" style="verticalAlign=bottom;startArrow=oval;endArrow=block;startSize=8;shadow=0;strokeWidth=1;" edge="1" parent="OUyavA1izTECv5JwNmtU-211" target="OUyavA1izTECv5JwNmtU-212">
          <mxGeometry relative="1" as="geometry">
            <mxPoint x="-15" y="70" as="sourcePoint" />
          </mxGeometry>
        </mxCell>
        <mxCell id="OUyavA1izTECv5JwNmtU-214" value="" style="points=[];perimeter=orthogonalPerimeter;rounded=0;shadow=0;strokeWidth=1;" vertex="1" parent="OUyavA1izTECv5JwNmtU-211">
          <mxGeometry x="50" y="120" width="10" height="80" as="geometry" />
        </mxCell>
        <mxCell id="OUyavA1izTECv5JwNmtU-215" value=":Object" style="shape=umlLifeline;perimeter=lifelinePerimeter;container=1;collapsible=0;recursiveResize=0;rounded=0;shadow=0;strokeWidth=1;" vertex="1" parent="1">
          <mxGeometry x="520" y="300" width="100" height="300" as="geometry" />
        </mxCell>
        <mxCell id="OUyavA1izTECv5JwNmtU-216" value="" style="points=[];perimeter=orthogonalPerimeter;rounded=0;shadow=0;strokeWidth=1;" vertex="1" parent="OUyavA1izTECv5JwNmtU-215">
          <mxGeometry x="45" y="80" width="10" height="160" as="geometry" />
        </mxCell>
        <mxCell id="OUyavA1izTECv5JwNmtU-217" value="return" style="verticalAlign=bottom;endArrow=open;dashed=1;endSize=8;exitX=0;exitY=0.95;shadow=0;strokeWidth=1;" edge="1" parent="1" source="OUyavA1izTECv5JwNmtU-216" target="OUyavA1izTECv5JwNmtU-212">
          <mxGeometry relative="1" as="geometry">
            <mxPoint x="495" y="456" as="targetPoint" />
          </mxGeometry>
        </mxCell>
        <mxCell id="OUyavA1izTECv5JwNmtU-218" value="dispatch" style="verticalAlign=bottom;endArrow=block;entryX=0;entryY=0;shadow=0;strokeWidth=1;" edge="1" parent="1" source="OUyavA1izTECv5JwNmtU-212" target="OUyavA1izTECv5JwNmtU-216">
          <mxGeometry relative="1" as="geometry">
            <mxPoint x="495" y="380" as="sourcePoint" />
          </mxGeometry>
        </mxCell>
        <mxCell id="OUyavA1izTECv5JwNmtU-219" value="callback" style="verticalAlign=bottom;endArrow=block;entryX=1;entryY=0;shadow=0;strokeWidth=1;" edge="1" parent="1" source="OUyavA1izTECv5JwNmtU-216" target="OUyavA1izTECv5JwNmtU-214">
          <mxGeometry relative="1" as="geometry">
            <mxPoint x="460" y="420" as="sourcePoint" />
          </mxGeometry>
        </mxCell>
        <mxCell id="OUyavA1izTECv5JwNmtU-220" value="return" style="verticalAlign=bottom;endArrow=open;dashed=1;endSize=8;exitX=1;exitY=0.95;shadow=0;strokeWidth=1;" edge="1" parent="1" source="OUyavA1izTECv5JwNmtU-214" target="OUyavA1izTECv5JwNmtU-216">
          <mxGeometry relative="1" as="geometry">
            <mxPoint x="460" y="477" as="targetPoint" />
          </mxGeometry>
        </mxCell>
        <mxCell id="OUyavA1izTECv5JwNmtU-221" value=":Object" style="shape=umlLifeline;perimeter=lifelinePerimeter;container=1;collapsible=0;recursiveResize=0;rounded=0;shadow=0;strokeWidth=1;" vertex="1" parent="1">
          <mxGeometry x="350" y="310" width="100" height="300" as="geometry" />
        </mxCell>
        <mxCell id="OUyavA1izTECv5JwNmtU-222" value="" style="points=[];perimeter=orthogonalPerimeter;rounded=0;shadow=0;strokeWidth=1;" vertex="1" parent="OUyavA1izTECv5JwNmtU-221">
          <mxGeometry x="45" y="70" width="10" height="190" as="geometry" />
        </mxCell>
        <mxCell id="OUyavA1izTECv5JwNmtU-223" value="dispatch" style="verticalAlign=bottom;startArrow=oval;endArrow=block;startSize=8;shadow=0;strokeWidth=1;" edge="1" parent="OUyavA1izTECv5JwNmtU-221" target="OUyavA1izTECv5JwNmtU-222">
          <mxGeometry relative="1" as="geometry">
            <mxPoint x="-15" y="70" as="sourcePoint" />
          </mxGeometry>
        </mxCell>
        <mxCell id="OUyavA1izTECv5JwNmtU-224" value="" style="points=[];perimeter=orthogonalPerimeter;rounded=0;shadow=0;strokeWidth=1;" vertex="1" parent="OUyavA1izTECv5JwNmtU-221">
          <mxGeometry x="50" y="120" width="10" height="80" as="geometry" />
        </mxCell>
        <mxCell id="OUyavA1izTECv5JwNmtU-225" value=":Object" style="shape=umlLifeline;perimeter=lifelinePerimeter;container=1;collapsible=0;recursiveResize=0;rounded=0;shadow=0;strokeWidth=1;" vertex="1" parent="1">
          <mxGeometry x="530" y="310" width="100" height="300" as="geometry" />
        </mxCell>
        <mxCell id="OUyavA1izTECv5JwNmtU-226" value="" style="points=[];perimeter=orthogonalPerimeter;rounded=0;shadow=0;strokeWidth=1;" vertex="1" parent="OUyavA1izTECv5JwNmtU-225">
          <mxGeometry x="45" y="80" width="10" height="160" as="geometry" />
        </mxCell>
        <mxCell id="OUyavA1izTECv5JwNmtU-227" value="return" style="verticalAlign=bottom;endArrow=open;dashed=1;endSize=8;exitX=0;exitY=0.95;shadow=0;strokeWidth=1;" edge="1" parent="1" source="OUyavA1izTECv5JwNmtU-226" target="OUyavA1izTECv5JwNmtU-222">
          <mxGeometry relative="1" as="geometry">
            <mxPoint x="505" y="466" as="targetPoint" />
          </mxGeometry>
        </mxCell>
        <mxCell id="OUyavA1izTECv5JwNmtU-228" value="dispatch" style="verticalAlign=bottom;endArrow=block;entryX=0;entryY=0;shadow=0;strokeWidth=1;" edge="1" parent="1" source="OUyavA1izTECv5JwNmtU-222" target="OUyavA1izTECv5JwNmtU-226">
          <mxGeometry relative="1" as="geometry">
            <mxPoint x="505" y="390" as="sourcePoint" />
          </mxGeometry>
        </mxCell>
        <mxCell id="OUyavA1izTECv5JwNmtU-229" value="callback" style="verticalAlign=bottom;endArrow=block;entryX=1;entryY=0;shadow=0;strokeWidth=1;" edge="1" parent="1" source="OUyavA1izTECv5JwNmtU-226" target="OUyavA1izTECv5JwNmtU-224">
          <mxGeometry relative="1" as="geometry">
            <mxPoint x="470" y="430" as="sourcePoint" />
          </mxGeometry>
        </mxCell>
        <mxCell id="OUyavA1izTECv5JwNmtU-230" value="return" style="verticalAlign=bottom;endArrow=open;dashed=1;endSize=8;exitX=1;exitY=0.95;shadow=0;strokeWidth=1;" edge="1" parent="1" source="OUyavA1izTECv5JwNmtU-224" target="OUyavA1izTECv5JwNmtU-226">
          <mxGeometry relative="1" as="geometry">
            <mxPoint x="470" y="487" as="targetPoint" />
          </mxGeometry>
        </mxCell>
        <mxCell id="OUyavA1izTECv5JwNmtU-231" value=":Object" style="shape=umlLifeline;perimeter=lifelinePerimeter;container=1;collapsible=0;recursiveResize=0;rounded=0;shadow=0;strokeWidth=1;" vertex="1" parent="1">
          <mxGeometry x="360" y="320" width="100" height="300" as="geometry" />
        </mxCell>
        <mxCell id="OUyavA1izTECv5JwNmtU-232" value="" style="points=[];perimeter=orthogonalPerimeter;rounded=0;shadow=0;strokeWidth=1;" vertex="1" parent="OUyavA1izTECv5JwNmtU-231">
          <mxGeometry x="45" y="70" width="10" height="190" as="geometry" />
        </mxCell>
        <mxCell id="OUyavA1izTECv5JwNmtU-233" value="dispatch" style="verticalAlign=bottom;startArrow=oval;endArrow=block;startSize=8;shadow=0;strokeWidth=1;" edge="1" parent="OUyavA1izTECv5JwNmtU-231" target="OUyavA1izTECv5JwNmtU-232">
          <mxGeometry relative="1" as="geometry">
            <mxPoint x="-15" y="70" as="sourcePoint" />
          </mxGeometry>
        </mxCell>
        <mxCell id="OUyavA1izTECv5JwNmtU-234" value="" style="points=[];perimeter=orthogonalPerimeter;rounded=0;shadow=0;strokeWidth=1;" vertex="1" parent="OUyavA1izTECv5JwNmtU-231">
          <mxGeometry x="50" y="120" width="10" height="80" as="geometry" />
        </mxCell>
        <mxCell id="OUyavA1izTECv5JwNmtU-235" value=":Object" style="shape=umlLifeline;perimeter=lifelinePerimeter;container=1;collapsible=0;recursiveResize=0;rounded=0;shadow=0;strokeWidth=1;" vertex="1" parent="1">
          <mxGeometry x="540" y="320" width="100" height="300" as="geometry" />
        </mxCell>
        <mxCell id="OUyavA1izTECv5JwNmtU-236" value="" style="points=[];perimeter=orthogonalPerimeter;rounded=0;shadow=0;strokeWidth=1;" vertex="1" parent="OUyavA1izTECv5JwNmtU-235">
          <mxGeometry x="45" y="80" width="10" height="160" as="geometry" />
        </mxCell>
        <mxCell id="OUyavA1izTECv5JwNmtU-237" value="return" style="verticalAlign=bottom;endArrow=open;dashed=1;endSize=8;exitX=0;exitY=0.95;shadow=0;strokeWidth=1;" edge="1" parent="1" source="OUyavA1izTECv5JwNmtU-236" target="OUyavA1izTECv5JwNmtU-232">
          <mxGeometry relative="1" as="geometry">
            <mxPoint x="515" y="476" as="targetPoint" />
          </mxGeometry>
        </mxCell>
        <mxCell id="OUyavA1izTECv5JwNmtU-238" value="dispatch" style="verticalAlign=bottom;endArrow=block;entryX=0;entryY=0;shadow=0;strokeWidth=1;" edge="1" parent="1" source="OUyavA1izTECv5JwNmtU-232" target="OUyavA1izTECv5JwNmtU-236">
          <mxGeometry relative="1" as="geometry">
            <mxPoint x="515" y="400" as="sourcePoint" />
          </mxGeometry>
        </mxCell>
        <mxCell id="OUyavA1izTECv5JwNmtU-239" value="callback" style="verticalAlign=bottom;endArrow=block;entryX=1;entryY=0;shadow=0;strokeWidth=1;" edge="1" parent="1" source="OUyavA1izTECv5JwNmtU-236" target="OUyavA1izTECv5JwNmtU-234">
          <mxGeometry relative="1" as="geometry">
            <mxPoint x="480" y="440" as="sourcePoint" />
          </mxGeometry>
        </mxCell>
        <mxCell id="OUyavA1izTECv5JwNmtU-240" value="return" style="verticalAlign=bottom;endArrow=open;dashed=1;endSize=8;exitX=1;exitY=0.95;shadow=0;strokeWidth=1;" edge="1" parent="1" source="OUyavA1izTECv5JwNmtU-234" target="OUyavA1izTECv5JwNmtU-236">
          <mxGeometry relative="1" as="geometry">
            <mxPoint x="480" y="497" as="targetPoint" />
          </mxGeometry>
        </mxCell>
      </root>
    </mxGraphModel>
  </diagram>
</mxfile>
